<svg xmlns="http://www.w3.org/2000/svg" version="1.1" viewBox="-5.0 -10.0 110.0 135.0">
 <path d="m59 35.148c-0.10156-1.2891 0.83984-2.5781 2.7812-3.8398-0.17578-0.75-0.082031-1.5391 0.25781-2.2305 0.33203-0.52734 0.875-0.89062 1.4922-1 1.8594-0.42969 3.2891 1.2305 3.8906 2.0898v0.003906c1.1445-1.5078 3.1289-2.1016 4.918-1.4805 2 0.71094 2.5898 3.0703 3.2188 5.8086 0.33984 1.832 0.92578 3.6055 1.7422 5.2812 2.2812 4.1289 5.8398 6 8.1797 6.0703 0.51953-0.070312 1.0273 0.1875 1.2812 0.64844 0.51953 1.1484-1.2695 3.3281-1.6289 3.75h-0.003906c-0.089844 0.10156-0.22656 0.14844-0.35938 0.12109-2.1484-0.44922-5.4414-0.69141-6 0.17969-0.73047 1.1016-2.2891 2.6914-3.6992 2.6914l-0.17187-0.003907c-0.84375-0.13672-1.5312-0.74609-1.7695-1.5664-1.25-3-1.4609-6.3086-0.48828-7.6602 0.69922-1-0.089844-2.6914-0.10156-2.7109-0.027343-0.078125-0.027343-0.16406 0-0.24219 0.17969-0.82812 0.32813-2.3398-0.058593-2.8281-0.058594-0.078125-0.15234-0.125-0.25-0.12891-0.75 0.03125-1.418 0.47656-1.7305 1.1602-0.039062 0.085937-0.11328 0.15234-0.19922 0.1875-0.66797 0.26172-1.4062 0.26172-2.0703 0-0.60156-0.28125-1.0508-0.80859-1.2305-1.4492-0.31641-0.6875-1.0117-1.125-1.7695-1.1094-1.1484-0.14453-2.2812 0.37109-2.9297 1.3281-0.089843 0.18359-0.30469 0.26172-0.49219 0.17969-0.078125-0.089844-2.6484-1.2383-2.8086-3.25zm2.5898 3.5312c-0.10156-0.015626-0.19922 0.011718-0.28125 0.074218-0.078125 0.0625-0.12891 0.15625-0.13672 0.25781 0 0.19141-0.57812 4.8906 2 7.1914v-0.003906c0.95703 0.82422 2.1953 1.2539 3.457 1.1992 0.74609-0.003907 1.4883-0.097657 2.2109-0.27734 0.17578-0.074219 0.26953-0.26172 0.22656-0.44531-0.046875-0.17969-0.21875-0.30469-0.40625-0.28516-2.1719 0.51953-3.8516 0.26172-5-0.75-2.2695-2-1.75-6.5-1.75-6.5391 0.03125-0.19922-0.10156-0.38672-0.30078-0.42187zm9.8086 13.539h0.12109c0.18359-0.027344 0.32031-0.1875 0.32031-0.375 0-0.18359-0.13672-0.34375-0.32031-0.375-0.9375 0.19141-1.9102-0.10547-2.582-0.78516-0.67578-0.68359-0.95703-1.6562-0.75781-2.5938 0.003906-0.1875-0.12891-0.35156-0.3125-0.38281-0.1875-0.03125-0.36719 0.074219-0.42578 0.25391-0.15234 1.0625 0.125 2.1406 0.76953 3 0.82422 0.88281 2.0039 1.3438 3.2109 1.2578zm16.441-1-0.25-0.33984c-0.0625-0.12891-0.19531-0.20703-0.33984-0.20703-0.20703 0.003906-0.37109 0.17188-0.37109 0.37891 0 0.14062 0 0.14062 0.35156 0.60938 5.6719 7.6211 8 13.891 6.6992 17.68-2.1211 5.9297-16.75 6.4609-19.141 6.5117l-1-7.7617 12.762-2.3008c0.14453-0.03125 0.26172-0.14453 0.30078-0.28906 0.027344-0.14453-0.03125-0.29297-0.15234-0.37891-2.5312-1.9492-4.4609-4.5781-5.5586-7.582-0.066406-0.19922-0.28125-0.30469-0.48047-0.23828-0.19531 0.066407-0.30078 0.27344-0.23828 0.46875 1.0273 2.8945 2.8125 5.4609 5.168 7.4297l-12.27 2.2109c-0.19922 0.035156-0.33203 0.22266-0.30078 0.41797l1.0898 8.4297v0.003907c0.023437 0.18359 0.18359 0.32422 0.37109 0.32812 0.73047 0 17.711-0.078125 20.18-7 1.4492-4.1016-0.89844-10.449-6.8008-18.379zm-16.141 17.27c0.17188 0.11328 0.40234 0.066407 0.51562-0.10156 0.054687-0.082031 0.074218-0.18359 0.054687-0.28125-0.019531-0.097657-0.078125-0.17969-0.16016-0.23438-2.3984-1.6016-3.8516-2.0898-4.2891-1.4414-0.29297 0.53516-0.37109 1.1602-0.21094 1.75-0.94141-0.12891-2.7383-0.26953-3.4883 0.39062-0.50391 0.48438-0.64453 1.2344-0.35156 1.8711 0.25 0.55078 0.71094 0.98047 1.2812 1.1875-0.19141 0.11328-0.34375 0.28516-0.42969 0.49219-0.12891 0.35938-0.015625 0.75781 0.27734 1 0.24609 0.25781 0.53906 0.46484 0.86328 0.60938-0.050781 0.058593-0.089844 0.12891-0.12109 0.19922-0.12109 0.32812 0 0.67187 0.39062 1 0.26953 0.25 0.58203 0.45312 0.91797 0.60156-0.027344 0.03125-0.050781 0.070312-0.070313 0.10938-0.14062 0.33594-0.074218 0.72656 0.17188 1 0.48828 0.4375 1.1484 0.64062 1.8008 0.55078 1.5742-0.085937 3.1328-0.35938 4.6367-0.82031 0.097657-0.027344 0.17969-0.089844 0.22656-0.17578 0.050781-0.085937 0.0625-0.19141 0.035156-0.28516-0.058594-0.19531-0.26172-0.3125-0.46094-0.26172-2.4102 0.69922-5.25 1.0781-5.6406 0.55078-0.089844-0.12891-0.10938-0.21875-0.10156-0.23828h0.003906c0.12109-0.12109 0.28125-0.19922 0.44922-0.23047 0.30469 0.007812 0.60938-0.039063 0.89844-0.14062 0.17187-0.066406 0.26953-0.24219 0.23047-0.41797-0.03125-0.18359-0.19531-0.31641-0.37891-0.30078-0.28516 0.007812-0.57031 0.042968-0.85156 0.10938-0.51172-0.042969-0.99219-0.25781-1.3672-0.60938-0.12109-0.12109-0.16016-0.19141-0.17969-0.19922 0.19922-0.10547 0.42188-0.16406 0.64844-0.17188 0.28906 0.015625 0.57812-0.007812 0.85938-0.070312 0.1875-0.042969 0.3125-0.21875 0.28906-0.41016-0.03125-0.18359-0.19141-0.32422-0.37891-0.32812-0.27734-0.003906-0.55469 0.019532-0.82812 0.058594-0.56641-0.015625-1.1016-0.24219-1.5-0.64062-0.10938-0.12109-0.12891-0.17969-0.12109-0.19922 0.011719-0.019531 0.76953-0.42969 1.5586-0.51172 0.1875-0.042969 0.3125-0.21484 0.29297-0.40234-0.015625-0.19141-0.17188-0.33984-0.36328-0.34766-1.1797 0.089843-2.0703-0.28125-2.3594-1-0.16016-0.33203-0.09375-0.73047 0.16016-1 0.53125-0.46875 2.3906-0.32031 3.4297-0.10938 0.12891 0.023438 0.26172-0.019531 0.35156-0.11719 0.089844-0.10156 0.11719-0.24219 0.078125-0.37109-0.10938-0.30859-0.33984-1.2617-0.10156-1.6406 0.34375-0.12109 1.8945 0.62109 3.332 1.5781zm-3.4805 9.4414c-0.03125-0.19922-0.21875-0.33984-0.41797-0.30859l-6 0.89844c-0.57812 0.089844-1.125-0.28125-1.2617-0.84766l-2.8086-12.16c-0.074219-0.30078-0.019531-0.61328 0.14844-0.87109 0.17188-0.25781 0.4375-0.43359 0.74219-0.49219l6.7695-1.2188c0.57422-0.097657 1.1289 0.25781 1.2812 0.82031l0.32812 1.3086c0.015625 0.10938 0.074219 0.20703 0.16406 0.26562 0.089844 0.0625 0.20313 0.082031 0.30859 0.054687 0.10547-0.027344 0.19531-0.10156 0.24219-0.19531 0.050781-0.097656 0.054687-0.21094 0.015625-0.3125l-0.35156-1.3086v-0.003906c-0.25391-0.9375-1.1797-1.5273-2.1406-1.3594l-3.7617 0.67188 0.37109-6.5195h0.003906c0.007813-0.10156-0.027343-0.19922-0.09375-0.27734-0.0625-0.074219-0.15625-0.12109-0.25781-0.125-0.10156-0.007813-0.19922 0.027343-0.27344 0.09375-0.074218 0.070312-0.11719 0.16797-0.11719 0.26562l-0.37109 6.6914-2.25 0.39844c-0.50391 0.097656-0.94531 0.39062-1.2266 0.82031-0.29297 0.42969-0.38672 0.96094-0.26172 1.4609l2.8398 12.16c0.20312 0.84375 0.96094 1.4414 1.832 1.4414h0.26953l6-0.89844v-0.003906c0.097656-0.019531 0.17969-0.082031 0.23438-0.16406 0.050781-0.085938 0.066407-0.1875 0.042969-0.28516zm-4-36.48c0-0.097657-0.042969-0.19531-0.11719-0.26172-0.074218-0.066406-0.17187-0.10156-0.27344-0.097656-0.20312 0.015625-0.35938 0.1875-0.35938 0.39062 0.027344 0.54297 0.027344 1.0859 0 1.6289-0.039062 0.27344 0.074219 0.55078 0.30078 0.71094 0.11719 0.074219 0.25391 0.11328 0.39062 0.10938 0.19922 0 0.39453-0.054688 0.57031-0.14844 0.18359-0.09375 0.26172-0.31641 0.16797-0.5-0.089844-0.1875-0.3125-0.26172-0.5-0.17188l-0.17969 0.058594v0.003906c0.039062-0.57422 0.042969-1.1484 0.011719-1.7227zm1.3008 3.8516c0.050781 0.15234 0.19531 0.25781 0.35938 0.25781h0.12109c0.875-0.29297 1.5391-1.0195 1.75-1.918 0.042969-0.20312-0.089844-0.39844-0.28906-0.44141-0.20313-0.039063-0.39844 0.089843-0.44141 0.28906-0.16016 0.63281-0.625 1.1367-1.2383 1.3516-0.19531 0.0625-0.30469 0.26562-0.25 0.46094zm-2.3203-4.4805v-0.87891c-0.03125-0.18359-0.1875-0.32031-0.375-0.32031-0.18359 0-0.34375 0.13672-0.375 0.32031v0.87891c0.03125 0.18359 0.19141 0.31641 0.375 0.31641 0.1875 0 0.34375-0.13281 0.375-0.31641zm2.3711-1.25c-0.20703 0-0.375 0.16406-0.37891 0.37109v0.87891c0.027344 0.18359 0.1875 0.31641 0.375 0.31641 0.18359 0 0.34375-0.13281 0.375-0.31641v-0.87891c-0.007812-0.19922-0.16406-0.35938-0.36328-0.37109zm-6.8984 35.168c0 0.12109-0.78125 3-5.6797 4.2109h-0.003907c-0.17969 0.039062-0.36328 0.0625-0.54688 0.0625-4.8633-0.011719-11.441-14.59-12.203-16.32-0.074219-0.17969-0.007812-0.38672 0.16016-0.48047l0.23828-0.12891-2-2.2188 0.003906-0.003906c-1.0703-1.0156-1.1484-2.6992-0.17188-3.8086-0.17578-0.39844-0.15625-0.85547 0.050781-1.2422 0.47656-0.60547 1.1836-0.98828 1.9492-1.0586-0.042969-0.79688 0.23047-1.5781 0.76172-2.1719 0.22266-0.26172 0.56641-0.39062 0.91016-0.33984 0.25 0.039063 0.48438 0.14453 0.67969 0.30078-0.51172-2.1289-1.1914-5.5-0.53125-6.4102 0.13672-0.19141 0.35547-0.30859 0.58984-0.32031 1.5703 0 3.7305 5.6719 4.5781 8.1094l0.003907 0.003906c0.050781 0.09375 0.050781 0.21094 0 0.30859 0.69141 0.23047 1.2305 0.78125 1.4375 1.4805 0.30859 0.83203 0.46484 1.7109 0.47266 2.5977 0.0625-0.019532 0.13281-0.019532 0.19922 0 0.097657 0.023437 0.17578 0.089844 0.21875 0.17969l3.7109 7c0.5-10.988 11.82-15.488 11.941-15.488 0.19141-0.074219 0.41016 0.019531 0.48828 0.21094 0.074218 0.19531-0.023438 0.41406-0.21875 0.48828-0.12109 0-12 4.7812-11.449 16.371-0.003907 0.17188-0.11719 0.32813-0.28125 0.37891-0.17188 0.046875-0.35156-0.03125-0.42969-0.1875l-4.2383-8-8.2539 4.4375c2.1992 4.9102 8.1992 16.391 11.75 15.52 4.4219-1.0898 5.1016-3.5508 5.1289-3.6602h0.003906c0.023438-0.09375 0.082032-0.17578 0.16797-0.22656 0.082031-0.050781 0.18359-0.066406 0.28125-0.042969 0.19922 0.050782 0.32422 0.25 0.28125 0.44922zm-14.672-21.797c0.011719 0.046875 0.011719 0.097656 0 0.14844 0.15234-0.011719 0.30859-0.011719 0.46094 0h0.76172-0.003906c0.52344-0.039063 1.0469-0.039063 1.5703 0-1.4414-4.0898-3.1797-7.5117-3.8281-7.5117-0.49219 0.3125 0.039062 3.7617 1.0391 7.3633zm-4.7695 6.4219 0.42969 0.48047c0.82031 0.28125 1.4297 0.30078 1.6992 0s0.25-1 0.17969-1.2617v-0.003906c-0.36328-0.15625-0.68359-0.40625-0.92969-0.71875-0.058594-0.078125-0.082031-0.17969-0.066406-0.27734 0.011719-0.097656 0.066406-0.18359 0.14844-0.24219 0.16406-0.11719 0.39062-0.089844 0.51953 0.070312 0 0 0.51953 0.69141 1.1602 0.53125 0.35156-0.078125 0.33984-0.69922 0.28906-1.0703-0.20703-0.066406-0.38672-0.19141-0.51953-0.35938-0.41797-0.59766-0.44531-1.3789-0.070313-2 0.27344-0.57422 0.73438-1.0391 1.3086-1.3125 0 0-0.058594 0-0.070312-0.058594-0.30859-0.40234-0.85938-1.1406-1.2578-1.1406-0.10156-0.011719-0.20312 0.035156-0.26172 0.12109-0.44531 0.52344-0.63672 1.2188-0.52734 1.8984 0.015625 0.10547-0.011719 0.21484-0.070313 0.30078-0.066406 0.085938-0.16406 0.14063-0.26953 0.14844-0.35938 0-1.4492 0.21875-1.7383 0.73047 0 0.078125-0.16016 0.30078 0.078125 0.78125 0.074219 0.14453 0.042969 0.32422-0.070313 0.44141-0.41016 0.37891-0.64062 0.91406-0.63672 1.4727 0.003906 0.55859 0.24219 1.0898 0.65625 1.4648zm2.1016 2.3516 7.3008-4-0.003906-0.003906c0.035156-0.92578-0.11328-1.8438-0.4375-2.7109-0.42188-1.1914-1.3594-1.2188-3-1.1719h-0.78125c-0.73438 0.011719-1.3945 0.44922-1.6914 1.1211-0.21094 0.36328-0.21094 0.80859 0 1.1719 0.37891 0.46875 1.8789-0.16016 2.4102-0.48047 0.082032-0.054687 0.18359-0.074219 0.28125-0.050781 0.097656 0.023437 0.17969 0.085937 0.23047 0.17188 0.10938 0.16797 0.066406 0.39453-0.10156 0.50781-0.66016 0.37891-1.3867 0.625-2.1406 0.73047 0.058593 0.43359-0.015626 0.87109-0.21875 1.2617-0.14844 0.24219-0.39063 0.41406-0.66797 0.47656h-0.21094c0.125 0.60156-0.042969 1.2266-0.44922 1.6836-0.30469 0.26953-0.70312 0.41016-1.1133 0.38672h-0.25zm44.348 14.375c-0.09375-0.042969-0.19922-0.042969-0.29297-0.003906-0.089844 0.039062-0.16406 0.11719-0.19531 0.21484l-0.48047 1.1484c-1.5508 0.67969-15.91 6.8281-19.68 2-0.13672-0.14062-0.35547-0.16016-0.50781-0.039063-0.15625 0.11719-0.19531 0.33203-0.09375 0.5 1.2188 1.5391 3.332 2.0898 5.7617 2.0898 6.2109 0 14.48-3.7188 15-3.9414 0.085938-0.035156 0.15234-0.10156 0.1875-0.1875l0.53906-1.3008h0.003906c0.03125-0.09375 0.027344-0.19922-0.019531-0.29297-0.042969-0.089844-0.125-0.15625-0.22266-0.1875zm-47.578-10.781-23.5 4.3711c-0.83984 0.14844-1.6992-0.054688-2.3828-0.5625-0.67969-0.50781-1.1211-1.2734-1.2188-2.1172l-5.3086-44.809c-0.097656-0.87891 0.17969-1.7617 0.76953-2.4219 0.58984-0.64844 1.4297-1.0117 2.3086-1h29c1.5742 0 2.8984 1.1797 3.082 2.7422l2.2812 20h-0.003906c0.042969 0.18359 0.21875 0.30859 0.41016 0.28906 0.19141-0.019531 0.33594-0.17969 0.33984-0.37109l-2.2891-20c-0.20312-1.9453-1.8438-3.4258-3.8008-3.4297h-29c-1.0898 0.007812-2.125 0.47656-2.8477 1.293-0.72656 0.81641-1.0664 1.9023-0.94141 2.9883l5.2695 44.801v-0.003906c0.22266 1.9062 1.8125 3.3555 3.7305 3.4023 0.23828 0 0.47656-0.019531 0.71094-0.058594l23.5-4.3711c0.10937-0.007812 0.21094-0.058593 0.27734-0.14453 0.070313-0.085938 0.09375-0.19922 0.074219-0.30469-0.019531-0.10937-0.085938-0.20312-0.17969-0.25781s-0.20703-0.070312-0.3125-0.035156zm-24.711-38.199c-0.015625-0.20703-0.19531-0.35938-0.40234-0.34766-0.097656 0.003906-0.19141 0.046875-0.25781 0.125-0.066407 0.074219-0.097657 0.17188-0.089844 0.27344l0.39844 6.4219v-0.003906c0.011719 0.19922 0.17188 0.35547 0.37109 0.36328l24.762-0.80859v-0.003906c0.10156-0.003906 0.19922-0.050781 0.26953-0.12891 0.066406-0.078125 0.10156-0.18359 0.089844-0.28906l-1.1094-8.9102c-0.027344-0.18359-0.1875-0.32422-0.37109-0.32031h-24.57c-0.10156-0.003907-0.19531 0.035156-0.26953 0.10547-0.070313 0.070312-0.10938 0.16406-0.10938 0.26562 0 0.20703 0.16797 0.37891 0.37891 0.37891h24.238l1 8.1719-24 0.76953zm1 12.102c-0.011719-0.097657-0.058594-0.19141-0.13672-0.25-0.078125-0.0625-0.17578-0.09375-0.27344-0.082032-0.10156 0.011719-0.19141 0.0625-0.25391 0.14062s-0.089843 0.17969-0.078124 0.28125l0.57812 5h0.003907c0.019531 0.1875 0.17969 0.33203 0.37109 0.32812l6.4102-0.67969c0.19141-0.023438 0.33594-0.19531 0.32812-0.39062l-0.19922-7c-0.003906-0.10156-0.050781-0.19922-0.12891-0.26953-0.078125-0.070312-0.17969-0.10156-0.28125-0.089843l-7 0.71875v0.003906c-0.20312 0.015625-0.35547 0.19922-0.33594 0.40234 0.019531 0.20703 0.19922 0.35547 0.40625 0.33594l6.6797-0.66016 0.17969 6.2305-5.6914 0.60156zm1.4297 9.8594c-0.015624-0.20312-0.1875-0.35547-0.39062-0.35156-0.10156 0.007812-0.19531 0.050781-0.25781 0.12891-0.066406 0.074219-0.10156 0.17188-0.09375 0.27344l0.26172 4.5898c0.011718 0.097656 0.054687 0.19141 0.12891 0.25781 0.070312 0.058594 0.16016 0.09375 0.25 0.089844l6.7695-0.64062v0.003906c0.10156-0.011719 0.19141-0.0625 0.25-0.14062 0.0625-0.078125 0.09375-0.17578 0.082031-0.26953l-0.67187-6.8594v-0.003906c-0.003907-0.097657-0.050782-0.19531-0.12891-0.25781-0.082031-0.058594-0.17969-0.089844-0.28125-0.082031l-6.7305 0.83984h0.003907c-0.10938 0.003906-0.21094 0.050781-0.28516 0.12891-0.070312 0.082031-0.10156 0.19141-0.089843 0.29688 0.011719 0.10938 0.070312 0.20312 0.16016 0.26562 0.085937 0.0625 0.19922 0.085937 0.30469 0.058594l6.3516-0.80078 0.58984 6.1094-6 0.57031zm0.39844 9.3711c-0.011719-0.10156-0.0625-0.1875-0.14062-0.25-0.078125-0.058594-0.17969-0.085937-0.27734-0.070312-0.20703 0.03125-0.35156 0.22266-0.32031 0.42969l0.69922 4.8281c0.019531 0.10156 0.070312 0.1875 0.14844 0.25 0.070313 0.046875 0.14844 0.074219 0.23047 0.070313h0.058594l6.8281-1.1406h0.003907c0.1875-0.039063 0.32031-0.20703 0.3125-0.39844l-0.5-6.7305c-0.007813-0.10547-0.058594-0.20313-0.14453-0.26953-0.085938-0.066406-0.19141-0.089844-0.29688-0.070312l-7.2188 1.1484c-0.10156 0.015625-0.1875 0.070313-0.24609 0.15234-0.058594 0.078125-0.082031 0.17969-0.066407 0.28125 0.011719 0.097656 0.066407 0.1875 0.14844 0.24609 0.082031 0.058593 0.18359 0.082031 0.28125 0.0625l6.8594-1.0898 0.44922 6-6.1211 1zm7.8008-14.691 6.5586-0.33984c0.10156-0.003906 0.19531-0.046875 0.26172-0.12109 0.09375-0.066406 0.15234-0.17187 0.16016-0.28906l-0.39844-6.8398c-0.015624-0.20703-0.19531-0.36328-0.40234-0.35156l-6.5898 0.37109c-0.10938-0.019532-0.22266 0.011718-0.30859 0.085937-0.082031 0.070313-0.13281 0.17969-0.13281 0.28906 0 0.11328 0.050781 0.21875 0.13281 0.28906 0.085938 0.074219 0.19922 0.10547 0.30859 0.085938l6.2188-0.35156 0.35938 6.0781-5.8203 0.30078-0.23828-4.1484c-0.015625-0.20312-0.19141-0.35938-0.39844-0.34766-0.097657 0.003906-0.19141 0.046874-0.25781 0.12109-0.0625 0.074219-0.097656 0.16797-0.09375 0.26953l0.26953 4.5195c-0.003907 0.10547 0.042968 0.21094 0.12109 0.28125 0.078125 0.074218 0.18359 0.10938 0.28906 0.097656zm1.2188 5.25c-0.023437-0.20312-0.20312-0.35156-0.41016-0.33984-0.20312 0.019532-0.35547 0.20312-0.33984 0.41016l0.26953 3.2109h0.003907c0.007812 0.19531 0.17188 0.34375 0.36719 0.33984l5.8984-0.62891 0.003906-0.003907c0.19531-0.023437 0.33984-0.19922 0.32812-0.39844l-0.35938-6.168c-0.011719-0.10156-0.058594-0.19141-0.12891-0.26172-0.082032-0.058594-0.17969-0.089844-0.28125-0.089844l-6.3906 0.5c-0.097657 0.007813-0.19141 0.054688-0.25781 0.13281-0.0625 0.078125-0.09375 0.17578-0.082031 0.27734 0.003906 0.097656 0.050781 0.19141 0.12891 0.25781 0.074219 0.0625 0.17188 0.09375 0.27344 0.082031l6-0.46875 0.35938 5.3906-5.1602 0.55859zm0.60156 8.1406c-0.042969-0.19922-0.23047-0.33203-0.42969-0.3125-0.10156 0.019531-0.1875 0.074219-0.24609 0.15625-0.058593 0.082031-0.082031 0.1875-0.0625 0.28516l0.73047 4.4492h-0.003906c0.023437 0.10156 0.078125 0.19141 0.16016 0.25 0.066407 0.039062 0.13672 0.0625 0.21094 0.0625h0.078125l6.1211-1.1797c0.19922-0.039062 0.33203-0.22266 0.30078-0.42187l-0.89844-6.2891c-0.019531-0.097656-0.070312-0.1875-0.15234-0.25-0.078126-0.0625-0.17969-0.089844-0.27734-0.070313l-6 0.87109c-0.20312 0.035156-0.33984 0.22656-0.3125 0.42969 0.011718 0.097656 0.066406 0.18359 0.14453 0.24219 0.078125 0.058594 0.17969 0.082031 0.27734 0.066407l5.5898-0.80859 0.80078 5.5586-5.3984 1zm7.7383-18.27c-0.015625-0.20703-0.19141-0.36328-0.39844-0.35156-0.097657 0.003907-0.19141 0.050781-0.25391 0.12109-0.066406 0.074219-0.10156 0.17188-0.097656 0.26953l0.19922 3.6602h0.003906c0.003906 0.097657 0.046875 0.19141 0.11719 0.25781 0.070312 0.0625 0.16016 0.09375 0.25 0.09375l5.6016-0.45312c0.10156-0.003906 0.19531-0.050781 0.26172-0.12891 0.066406-0.078125 0.097656-0.17969 0.089843-0.28125l-0.60937-6.3594h-0.003907c-0.007812-0.097657-0.050781-0.1875-0.12891-0.25391-0.074219-0.0625-0.17188-0.09375-0.26953-0.085937l-5.5586 0.46875c-0.1875 0.042969-0.3125 0.21875-0.29297 0.40625 0.015625 0.19141 0.17188 0.33984 0.36328 0.34375l5.1797-0.44141 0.53125 5.6094-4.8203 0.35938zm5.8789 12.621 0.003907-0.003907c0.023437 0.20703 0.21094 0.35156 0.41406 0.32812 0.20312-0.027344 0.35156-0.21094 0.32422-0.41797l-0.82812-6.8594c-0.03125-0.20312-0.21484-0.34766-0.42188-0.32812l-5.4609 0.64844c-0.19922 0.023437-0.34766 0.19922-0.32812 0.40234l1.3086 14.211v-0.003906c0.019531 0.19141 0.17969 0.33594 0.37109 0.33984l1.8398-0.12109v0.003906c0.10937 0.007813 0.21875-0.03125 0.29687-0.10938 0.078126-0.078125 0.12109-0.1875 0.11328-0.29688-0.007813-0.10938-0.0625-0.21094-0.15234-0.27734-0.085938-0.066406-0.19922-0.089843-0.30859-0.066406l-1.4492 0.058594-1.2383-13.48 4.7305-0.51953z"/>
</svg>