<svg xmlns="http://www.w3.org/2000/svg" xmlns:xlink="http://www.w3.org/1999/xlink" width="2380" zoomAndPan="magnify" viewBox="0 0 1784.88 1784.99993" height="2380" preserveAspectRatio="xMidYMid meet" version="1.0"><path fill="#a46e76" d="M 364.597656 253.777344 C 364.597656 166.351562 380.816406 116.765625 428.351562 68.109375 C 469.363281 23.929688 459.667969 4.355469 409.894531 31.386719 C 376.527344 49.652344 344.089844 98.308594 322.46875 165.230469 C 315.941406 183.5 312.773438 246.136719 314.824219 303.367188 C 317.992188 390.792969 326.753906 423.230469 367.765625 505.253906 C 471.597656 714.785156 612.34375 791.402344 665.65625 825.699219 L 662.488281 917.417969 C 655.964844 1131.050781 745.628906 1352.324219 909.675781 1525.132812 C 1015.371094 1637.539062 1043.894531 1647.605469 1080.246094 1668.671875 L 995.054688 1684.890625 C 784.40625 1724.035156 780.117188 1780.519531 874.257812 1754.050781 C 975.292969 1726.085938 1295.183594 1775.300781 1295.183594 1736.710938 C 1295.183594 1725.902344 1288.65625 1716.207031 1281.203125 1716.207031 C 1273.746094 1716.207031 1241.308594 1692.53125 1208.871094 1662.332031 C 1146.238281 1605.105469 1056.757812 1439.007812 1042.589844 1357.917969 C 1031.777344 1290.992188 1004.746094 1308.332031 1010.152344 1378.421875 C 1014.441406 1443.109375 1042.589844 1531.65625 1073.722656 1578.074219 C 1110.445312 1635.304688 1069.433594 1609.390625 999.15625 1532.773438 C 811.433594 1327.71875 715.246094 1115.019531 715.246094 902.503906 C 715.246094 862.609375 719.53125 851.800781 734.632812 858.324219 C 787.574219 878.828125 929.996094 895.046875 983.867188 887.40625 C 1247.273438 848.628906 1345.515625 643.574219 1149.03125 544.214844 C 989.273438 463.308594 813.296875 521.472656 726.988281 683.464844 C 709.652344 717.953125 687.09375 746.101562 678.519531 746.101562 C 642.914062 746.101562 364.410156 527.4375 364.410156 253.964844 Z M 763.898438 725.410156 C 841.632812 577.582031 990.578125 520.351562 1128.714844 582.988281 C 1363.78125 690.175781 1063.839844 895.234375 785.523438 798.855469 C 735.9375 781.519531 735.9375 780.589844 763.898438 725.410156 Z M 763.898438 725.410156 " fill-opacity="1" fill-rule="nonzero"/></svg>