<svg xmlns="http://www.w3.org/2000/svg" version="1.1" viewBox="-5.0 -10.0 110.0 135.0">
 <path d="m64.93 55.57v1.8711c0 2.0586-1.6133 3.7617-3.668 3.8789l-52.262 2.9609h-0.19141c-2.1484 0-3.8867-1.7422-3.8867-3.8906v-51.332c0.003906-1.0625 0.44141-2.0781 1.2109-2.8086 0.76953-0.73438 1.8047-1.1172 2.8672-1.0703l52.238 2.6211c2.0703 0.10156 3.6953 1.8086 3.6914 3.8789v24.32c-0.03125 0.18359-0.1875 0.32031-0.375 0.32031s-0.34375-0.13672-0.375-0.32031v-24.32c0-1.6797-1.3203-3.0586-3-3.1289l-52.18-2.6211c-0.85938-0.039063-1.6953 0.26953-2.3164 0.85937-0.625 0.59375-0.98047 1.4141-0.98438 2.2695v2.9414l51 1.6289c0.17578 0.035156 0.30469 0.19141 0.30078 0.37109-0.003906 0.19922-0.16797 0.35938-0.37109 0.35938l-51-1.6289v47.66c-0.003906 0.86719 0.35938 1.6953 1 2.2812 0.63281 0.60938 1.4961 0.92188 2.3711 0.85938l52.23-3c1.6758-0.074219 2.9961-1.4531 3-3.1328v-1.8281c0.03125-0.18359 0.1875-0.32031 0.375-0.32031s0.34375 0.13672 0.375 0.32031zm-53.789-46.852c-0.10156 0-0.19531 0.042969-0.26562 0.11328-0.070312 0.070313-0.10938 0.16797-0.10547 0.26953-0.003906 0.097657 0.035157 0.19141 0.10547 0.26172 0.070312 0.070313 0.16797 0.10938 0.26562 0.10547h2.9102c0.097657 0 0.19141-0.039062 0.26172-0.10547 0.070312-0.070312 0.10938-0.16406 0.10938-0.26172 0-0.20703-0.16406-0.375-0.37109-0.38281zm6.6289 0.19922v0.003906c-0.20703-0.011719-0.38281 0.14062-0.39844 0.34766-0.007813 0.20312 0.14844 0.375 0.34766 0.39062l2.8594 0.17188v-0.003906c0.10547 0.011719 0.20703-0.019531 0.28516-0.082031 0.082031-0.066406 0.12891-0.16406 0.13672-0.26562 0.007812-0.20703-0.15234-0.38281-0.35938-0.40234zm6.6406 0.42969v0.003906c-0.21094 0-0.37891 0.16797-0.37891 0.37891 0 0.097656 0.039062 0.19531 0.10938 0.26562 0.074219 0.070312 0.16797 0.10547 0.26953 0.10547h3c0.097656 0 0.19141-0.039062 0.26172-0.10937 0.070313-0.070313 0.10938-0.16406 0.10938-0.26172 0-0.20703-0.16406-0.375-0.37109-0.37891zm9.5898 10.824c0.10156-0.003906 0.19531 0.035156 0.26953 0.10156 0.070313 0.070312 0.10938 0.16797 0.10938 0.26562v27.461c0 0.10156-0.039062 0.19531-0.10938 0.26562-0.074219 0.070313-0.16797 0.10547-0.26953 0.10547h-24.309c-0.10156 0-0.19922-0.035156-0.26953-0.10547s-0.11328-0.16406-0.11328-0.26562v-27.461c0-0.097656 0.042968-0.19531 0.11328-0.26562 0.070313-0.066407 0.16797-0.10547 0.26953-0.10156zm-0.37109 0.75h-23.57v26.738h23.59zm-11.77 14.449c1.7969-0.003906 3.4102-1.0898 4.0938-2.75 0.6875-1.6602 0.30469-3.5664-0.96875-4.8359-1.2695-1.2656-3.1797-1.6445-4.8359-0.95703s-2.7383 2.3086-2.7383 4.1016c0 1.1797 0.46875 2.3086 1.3047 3.1445 0.83203 0.83203 1.9648 1.2969 3.1445 1.2969zm-7.5117 9.25h15.004c0.20313 0 0.37109-0.16406 0.37891-0.37109 0-4.3516-3.5273-7.8789-7.8789-7.8789-4.3555 0-7.8828 3.5273-7.8828 7.8789 0.007812 0.20703 0.17578 0.37109 0.38281 0.37109zm46.422-14.621c0 0.10156-0.039062 0.19531-0.11328 0.26562-0.070312 0.070313-0.16797 0.10547-0.26562 0.10547h-21.691c-0.20312 0-0.37109-0.16797-0.37109-0.37109v-7.6211c0-0.097656 0.035156-0.19531 0.10547-0.26562 0.070312-0.074219 0.16797-0.11328 0.26562-0.11328h21.691c0.097656-0.003906 0.19531 0.035156 0.26562 0.10547 0.074219 0.070312 0.11328 0.16406 0.11328 0.26562zm-0.76953-7.2383h-20.922v6.8906l20.922-0.003906zm-17.809 3.8164h1.1992c0.18359-0.027344 0.31641-0.1875 0.31641-0.375 0-0.18359-0.13281-0.34375-0.31641-0.375h-1.1992c-0.18359 0.03125-0.32031 0.19141-0.32031 0.375 0 0.1875 0.13672 0.34766 0.32031 0.375zm3.3789 0h1.1992c0.18359-0.027344 0.32031-0.1875 0.32031-0.375 0-0.18359-0.13672-0.34375-0.32031-0.375h-1.1992c-0.18359 0.03125-0.32031 0.19141-0.32031 0.375 0 0.1875 0.13672 0.34766 0.32031 0.375zm3.3789 0h1.1914c0.10938 0.019531 0.22266-0.011719 0.30859-0.082031 0.082031-0.074219 0.13281-0.17969 0.13281-0.29297 0-0.10938-0.050781-0.21484-0.13281-0.28906-0.085938-0.070312-0.19922-0.10156-0.30859-0.085937h-1.1406c-0.18359 0.03125-0.32031 0.19141-0.32031 0.375 0 0.1875 0.13672 0.34766 0.32031 0.375zm3.3789 0h1.1914c0.10938 0.019531 0.22266-0.011719 0.30859-0.082031 0.085937-0.074219 0.13281-0.17969 0.13281-0.29297 0-0.10938-0.046876-0.21484-0.13281-0.28906-0.085937-0.070312-0.19922-0.10156-0.30859-0.085937h-1.1914c-0.10938-0.015625-0.21875 0.015625-0.30469 0.085937-0.085938 0.074219-0.13672 0.17969-0.13672 0.28906 0 0.11328 0.050781 0.21875 0.13672 0.29297 0.085937 0.070312 0.19531 0.10156 0.30469 0.082031zm3.3789 0h1.1914c0.11328 0.019531 0.22266-0.011719 0.30859-0.082031 0.085938-0.074219 0.13281-0.17969 0.13281-0.29297 0-0.10938-0.046875-0.21484-0.13281-0.28906-0.085937-0.070312-0.19531-0.10156-0.30859-0.085937h-1.1875c-0.10938-0.015625-0.22266 0.015625-0.30859 0.085937-0.085938 0.074219-0.13281 0.17969-0.13281 0.28906 0 0.11328 0.046875 0.21875 0.13281 0.29297 0.085937 0.070312 0.19922 0.10156 0.30859 0.082031zm4.6797 11h0.003906c0.097656 0.003906 0.19531-0.035156 0.26562-0.10156 0.074219-0.070312 0.11328-0.16797 0.11328-0.26562v-4.6992c-0.003906-0.20703-0.17188-0.37109-0.37891-0.37109h-21.691c-0.20312 0.003906-0.36328 0.16797-0.37109 0.37109v7.6484c0 0.20703 0.16406 0.375 0.37109 0.37891h16c0.10938 0.019532 0.22266-0.011718 0.30859-0.085937 0.085938-0.070313 0.13281-0.17578 0.13281-0.28906 0-0.10937-0.046875-0.21484-0.13281-0.28906-0.085937-0.070312-0.19922-0.10156-0.30859-0.085938h-15.621v-6.8984h20.922v4.2891c0 0.10156 0.042969 0.19922 0.11719 0.26953 0.070312 0.070312 0.17187 0.10547 0.27344 0.10156zm-18.195-1.5781c-0.20703 0.003906-0.37109 0.17578-0.37109 0.37891 0 0.20703 0.16406 0.37109 0.37109 0.37109h1.1992c0.097656 0.003906 0.19531-0.035156 0.26562-0.10547 0.070312-0.070312 0.10547-0.16406 0.10547-0.26562 0-0.097656-0.035157-0.19531-0.10547-0.26562-0.070312-0.074219-0.16797-0.11328-0.26562-0.11328zm3.3789 0c-0.20703 0.003906-0.37109 0.17578-0.37109 0.37891 0 0.20703 0.16797 0.37109 0.37109 0.37109h1.1992c0.097657 0 0.19141-0.039062 0.26172-0.10938s0.10938-0.16406 0.10938-0.26172c0-0.20312-0.16406-0.375-0.37109-0.37891zm3.4297 0c-0.10156 0-0.19531 0.039062-0.26562 0.11328-0.070313 0.070313-0.10547 0.16797-0.10547 0.26562 0 0.10156 0.035156 0.19531 0.10547 0.26562 0.070313 0.070313 0.16797 0.10938 0.26562 0.10547h1.1914c0.097656 0.003906 0.19531-0.035156 0.26562-0.10547 0.074219-0.070312 0.11328-0.16406 0.11328-0.26562 0-0.20703-0.17187-0.37891-0.37891-0.37891zm3.3789 0c-0.20703 0-0.37891 0.17188-0.37891 0.37891 0 0.10156 0.039062 0.19531 0.11328 0.26562 0.070313 0.070313 0.16797 0.10938 0.26562 0.10547h1.1914c0.097657 0.003906 0.19531-0.035156 0.26953-0.10547 0.070312-0.070312 0.10938-0.16406 0.10938-0.26562 0-0.20703-0.16797-0.37891-0.37891-0.37891zm4.5703 0h-1.2383c-0.21094 0-0.38281 0.17188-0.38281 0.37891 0 0.10156 0.042969 0.19531 0.11328 0.26562 0.070313 0.070313 0.16797 0.10938 0.26953 0.10547h1.1875c0.10156 0.003906 0.19922-0.035156 0.26953-0.10547 0.070312-0.070312 0.11328-0.16406 0.11328-0.26562 0-0.10156-0.042969-0.19531-0.11328-0.26953-0.070313-0.070313-0.16797-0.10938-0.26953-0.10938zm12.832 18.738c-0.12891 0.003907-0.24609-0.0625-0.3125-0.16797-0.61328-1.0977-0.55078-2.4453 0.16016-3.4805l-0.71094-0.48828h0.003906c-1.9492 0.86328-4.1602 0.92578-6.1523 0.16797-0.80469-0.32812-1.4414-0.96484-1.7695-1.7695-0.29297-0.95312-0.25391-1.9727 0.10938-2.8984-2.8789-2.2109-4.1094-5.1016-3.8594-6.3008 0.035156-0.36328 0.31641-0.65625 0.67969-0.69922 1.0898-0.078124 3.5 2 4.3711 2.8203 1.5312-1.0938 3.2148-1.9531 5-2.5508 0.82422-0.28125 1.7109-0.32422 2.5586-0.12109 2.4414 0.78906 3.6094 5.6484 3.8789 6.9102 0.97266-0.79688 2.1758-1.2578 3.4336-1.3086 0.11328 0 0.22266 0.050782 0.29688 0.13672 0.074219 0.089844 0.10156 0.20312 0.082031 0.3125-0.0625 0.37109-1.9727 9.2383-7.7695 9.4375zm6.9297-9.1094c-0.83203 0.14453-1.6172 0.48828-2.2891 1l1.7109 0.87891c0.27734-0.80859 0.46875-1.457 0.57813-1.8789zm-6.7109 8.3711c0.88672-0.10938 1.7305-0.45312 2.4414-1l-2.1992-1.5117h-0.003907c-0.48828 0.74609-0.57812 1.6875-0.23828 2.5117zm5.8711-5.8086-2.5781-1.3086-0.003907-0.003906c-0.10156-0.054687-0.17578-0.15234-0.19922-0.26953-0.30078-1.6406-1.5-6-3.4297-6.6289-0.54688-0.13672-1.1172-0.12891-1.6602 0.019531l1.4414 2.2188c0.10938 0.17578 0.058594 0.40625-0.11328 0.51953-0.082031 0.058594-0.1875 0.074219-0.28516 0.050781-0.097657-0.019531-0.17969-0.082031-0.23438-0.16797l-1.5703-2.4102c-0.48828 0.15625-0.96484 0.35156-1.4297 0.57812l2.1016 3.1992c0.10938 0.17578 0.0625 0.40625-0.10938 0.52344-0.0625 0.039062-0.13672 0.058593-0.21094 0.058593-0.125 0-0.24219-0.066406-0.30859-0.17187l-2.1484-3.2812c-0.69922 0.37109-1.3398 0.76172-1.8594 1.1016l2.6289 3.1719h-0.003906c0.09375 0.11328 0.11328 0.26953 0.050781 0.40234-0.0625 0.12891-0.19531 0.21484-0.33984 0.21875-0.11328 0-0.21875-0.054688-0.28906-0.14062l-2.6797-3.2305-0.12891 0.10156v-0.003907c-0.14062 0.11719-0.34375 0.11719-0.48047 0-1.2812-1.1992-3.3711-2.8789-4-2.8281-0.035156 0.26953-0.015625 0.54688 0.058594 0.80859 0.92188 2.7734 2.9961 5.0156 5.6914 6.1523 0.15625 0.10156 0.21094 0.30469 0.13281 0.47656-0.082031 0.17188-0.27344 0.25781-0.45312 0.20312-0.58984-0.29297-1.1523-0.625-1.6914-1-0.23438 0.70703-0.23438 1.4727 0 2.1797 0.25 0.62891 0.75 1.125 1.3789 1.3711 1.8672 0.67578 3.9219 0.58594 5.7227-0.25 0.11719-0.070312 0.26172-0.070312 0.37891 0l1.1797 0.80859 2.7109 1.8711c1.1992-1.25 2.125-2.7344 2.7188-4.3594zm3.6211-1.5117h-0.003907c-0.082031-0.054688-0.17969-0.074219-0.27734-0.058594-0.097657 0.019531-0.18359 0.078125-0.24219 0.16016-0.11328 0.17188-0.070312 0.40234 0.10156 0.51953l9.4219 6.4609h-0.003907c0.066407 0.039062 0.14453 0.058593 0.22266 0.058593 0.12109 0 0.23828-0.058593 0.30859-0.16016 0.11328-0.17188 0.070313-0.40234-0.097656-0.51953zm4 15.609-11.07-6c-0.089844-0.066406-0.20312-0.089843-0.3125-0.066406-0.10547 0.023438-0.19922 0.089844-0.25 0.1875-0.054687 0.097656-0.0625 0.21484-0.023437 0.31641 0.039062 0.10547 0.12109 0.18359 0.22266 0.22266l11.07 6c0.058594 0.015625 0.12109 0.015625 0.17969 0 0.14062 0 0.26562-0.078125 0.33203-0.19922 0.09375-0.16797 0.039063-0.37891-0.12109-0.48047zm11.301-39.531-0.003907 0.003907c-0.09375 0.03125-0.19531 0.023437-0.28516-0.023438-0.085937-0.042969-0.15234-0.125-0.18359-0.21875-1.4492-4.25-3.8086-5-5.7305-4.7891l0.25 0.37891c1.1055 1.5352 1.3125 3.543 0.53906 5.2695-0.55859 1-1.8594 2.3086-4.8281 2.3984h-0.21875c-2.3008 0-2.8086-1.1719-2.8984-1.8789-0.26953-2.0781 2.4883-5.5586 5.8008-6.6289h-0.003906c-1.7461-1.7461-4.1562-2.6641-6.6211-2.5312-8.4609 0.30078-9.2305 7.3906-9.2617 7.6992l0.003906 0.003906c-0.019531 0.20312-0.20312 0.35156-0.40625 0.33203-0.20312-0.019532-0.35547-0.19922-0.33594-0.40234 0-0.078125 0.83984-8 10-8.3789v-0.003907c2.8164-0.17188 5.5625 0.93359 7.4688 3.0117 1.9297-0.37109 5.1719-0.070312 7 5.2188 0.046875 0.10547 0.042969 0.22266-0.007813 0.32031-0.050781 0.10156-0.14062 0.17578-0.25 0.19922zm-6.5898-4.25-0.003906 0.003907c-0.12891-0.21875-0.27344-0.42578-0.42969-0.62109-3.0508 0.80859-5.7695 4.1094-5.5586 5.8984 0.12891 1.0586 1.3594 1.25 2.3398 1.2188 2.0781-0.058593 3.5312-0.76172 4.1914-2l-0.003907 0.003907c0.65234-1.4922 0.45703-3.2148-0.50781-4.5234zm-25.762 57.352-18.73 8.8594c-0.09375 0.042969-0.16406 0.11719-0.19531 0.21484-0.035156 0.09375-0.03125 0.19531 0.015625 0.28516 0.09375 0.18359 0.3125 0.26172 0.5 0.17969l17.68-8.3984-9.3516 16.809-6.1797-6.8086c-0.14453-0.13672-0.36719-0.13672-0.51563-0.003906-0.14453 0.13281-0.16406 0.35547-0.042968 0.51562l6.5391 7.1602c0.070313 0.078125 0.17188 0.12109 0.28125 0.11719 0.11719-0.007812 0.22656-0.082031 0.27734-0.1875l10.211-18.223c0.089843-0.14062 0.070312-0.32422-0.046876-0.44531-0.11328-0.12109-0.29687-0.15234-0.44141-0.074219zm-16.441 0.91016c0.12891 0.16016 0.36719 0.1875 0.53125 0.058594l4.7891-3.7188c0.10547-0.085937 0.16016-0.22266 0.14063-0.35938-0.023438-0.13672-0.11719-0.25391-0.25-0.30078l-7.2109-2.4492c-0.10938-0.050781-0.23047-0.050781-0.33984 0-0.097656 0.074219-0.15625 0.1875-0.16016 0.30859v6.7305c0.03125 0.18359 0.1875 0.32031 0.375 0.32031s0.34375-0.13672 0.375-0.32031v-6.1797l6.0586 2.0781-4.2383 3.3008c-0.16406 0.12891-0.19531 0.36719-0.070312 0.53125zm8-32.148c0.10156 0 0.19531-0.042969 0.26562-0.11328 0.070313-0.070312 0.10547-0.16797 0.10547-0.26953 0.003906-0.10156-0.035156-0.19922-0.10547-0.26953-0.074219-0.070312-0.17578-0.10938-0.27734-0.097656l-13.461 0.28906h0.003906c-0.20703 0.003906-0.37109 0.17188-0.37109 0.37891v8.4023c0 0.20703 0.17188 0.37891 0.37891 0.37891h17.512c0.21094 0 0.37891-0.17187 0.37891-0.37891v-5.9414c-0.03125-0.18359-0.1875-0.32031-0.375-0.32031s-0.34375 0.13672-0.375 0.32031v5.6016h-16.781v-7.7031z"/>
</svg>