<svg xmlns="http://www.w3.org/2000/svg" version="1.1" viewBox="-5.0 -10.0 110.0 135.0">
 <path d="m17.461 41.871c-0.19922-2.5781 0.058593-4.2812 0.76172-5h-0.003906c0.089844-0.097656 0.19141-0.17969 0.30078-0.25-0.19141-1.1797-0.64062-5.1992 1.9492-6.4688v-0.003906c1.2773-0.57031 2.6211-0.96875 4-1.1875 1.5156-0.21484 2.9766-0.71875 4.3008-1.4922l0.33984-0.23828c1.5703-1.0703 3.3398-2.3008 5.0781-1.8984l0.003906-0.003906c1.1484 0.35156 2.0938 1.1719 2.5977 2.2617 1.2695 2.2109 1.3906 4.4609 0.30859 6-1 1.3711-3.2383 2.8008-8.6992 2 0.41797 0.77344 0.48828 1.6836 0.19141 2.5117-0.36719 0.61328-1.0312 0.99219-1.75 1 0 0.83984 0.26953 3 1.8281 3.4688h0.003906c0.15234 0.039063 0.26172 0.17188 0.26953 0.32813 0.007813 0.15625-0.082031 0.30469-0.22266 0.37109-0.050781 0-1.3281 0.57031-3.3594-0.67969-0.67969-0.41406-1.5586-0.27344-2.0781 0.33203-0.58203 0.62109-0.61328 1.5781-0.070312 2.2383 1.2617 1.6289 2.5117 1.2695 2.5586 1.25 0.12109-0.039062 0.25391-0.011718 0.35156 0.070313 0.097656 0.078125 0.14844 0.20312 0.14062 0.32812l-0.26172 2.4219c-0.027344 0.1875-0.1875 0.33203-0.37891 0.33984h-0.10938c-0.32031-0.12109-7.6523-2.4805-8.0508-7.6992zm20-5.7695c-0.085938 0.050782-0.14844 0.13281-0.17188 0.23438-0.023437 0.097656-0.003906 0.19922 0.050782 0.28516 0 0.058594 3.8516 6.3398 1.8711 10.102-0.91016 1.7305-2.9492 2.6914-6.0703 2.8398v-0.003906c-0.20312 0.023437-0.35547 0.19531-0.35156 0.40234 0.011719 0.19531 0.17578 0.34766 0.37109 0.34766 3.3984-0.16016 5.6484-1.25 6.6914-3.2383 2.25-4.1289-1.6602-10.57-1.8516-10.84-0.10547-0.16406-0.31641-0.21875-0.48828-0.12891zm-11.871 14.52c-0.097656-0.011719-0.19922 0.019531-0.27344 0.082031-0.074218 0.066406-0.12109 0.15625-0.125 0.25781l-0.25 3.3008c-0.007812 0.097656 0.023438 0.19922 0.089844 0.27734 1.8672 1.8516 4.3711 2.9219 7 3 0.97656 0.003907 1.9492-0.15625 2.8789-0.46875 0.15625-0.054687 0.25781-0.20312 0.25-0.37109l-0.16016-5.25c0.019531-0.10938-0.011719-0.22266-0.085938-0.30859-0.070312-0.082031-0.17578-0.13281-0.28906-0.13281s-0.21875 0.050782-0.28906 0.13281c-0.074219 0.085937-0.10547 0.19922-0.085938 0.30859l0.17188 5c-3.1172 0.82422-6.4336-0.0625-8.7227-2.3281l0.24219-3.1211c0.003906-0.19922-0.15234-0.37109-0.35156-0.37891zm6.3203-8.6797c0.050782 0.007813 0.10156 0.007813 0.14844 0 0.09375-0.039062 0.16406-0.11328 0.19922-0.20703 0.035157-0.09375 0.03125-0.19531-0.007812-0.28516l-0.46875-1.0898c-0.039062-0.089844-0.11328-0.16016-0.20703-0.19531-0.089844-0.035156-0.19531-0.035156-0.28516 0.007813-0.089843 0.035156-0.16406 0.10938-0.20312 0.19922-0.035157 0.09375-0.035157 0.19922 0.003906 0.28906l0.46875 1.0898c0.070312 0.125 0.20703 0.19922 0.35156 0.19141zm4.2812-3.8789v-0.003906c-0.097656-0.17578-0.32031-0.24609-0.5-0.16016-0.089844 0.046874-0.16016 0.125-0.19141 0.22266-0.03125 0.09375-0.023438 0.19922 0.019531 0.28906l0.69141 1.3398c0.10156 0.17969 0.32422 0.25 0.50781 0.16016 0.17969-0.10156 0.25-0.32422 0.16016-0.51172zm-3.1914 1.6875c-0.070312 0.070312-0.11328 0.16406-0.11328 0.26562 0 0.097656 0.042969 0.19531 0.11328 0.26562l3 3c-0.18359 0.40625-0.55859 0.69141-1 0.75781-0.1875 0.042969-0.3125 0.21875-0.29297 0.41016 0.023438 0.19141 0.17969 0.33594 0.37109 0.33984h0.070313c0.84766-0.097656 1.5312-0.74219 1.6797-1.5781 0.011719-0.11328-0.027344-0.22266-0.10938-0.30078l-3.1914-3.1797h0.003906c-0.15234-0.13672-0.39062-0.12891-0.53125 0.019531zm3.4492 6.1719c-0.32812 0.60156-0.89844 1.0312-1.5703 1.1797-0.36328 0.027344-0.72266-0.09375-1-0.33203-0.14453-0.14453-0.38281-0.14453-0.52734 0-0.074218 0.070313-0.11328 0.16406-0.11328 0.26562 0 0.10156 0.039063 0.19531 0.11328 0.26562 0.38281 0.34375 0.88281 0.53906 1.3984 0.55078h0.17969c0.875-0.17578 1.6328-0.72266 2.0703-1.5 0.11719-0.17187 0.078125-0.40234-0.089844-0.52344-0.16797-0.11719-0.40234-0.078125-0.51953 0.09375zm1 7c0.054687 0.19922 0.25781 0.32031 0.46094 0.26953 0 0 5.5195-1.4492 7.0781 0.80859 1.7305 2.5 7.6016 9.7109 7.6602 9.7891 0.085937 0.10938 0.22656 0.16016 0.36328 0.13281 0.13672-0.03125 0.25-0.13281 0.28906-0.27344l2.5898-9.6484c0.3125 0.875 0.85938 1.6445 1.5781 2.2305 1.8516 1.5117 4.8086 1.8594 8.8086 1-1.4414 3.1797-7.7695 16.559-12.73 18h0.003906c-0.70312 0.26172-1.4883 0.17578-2.1211-0.23047-5.7109-3.8516-6.5-6.9414-6.5117-7h0.003906c-0.023437-0.078125-0.070313-0.14844-0.13281-0.19922-0.35156-3.3398-0.51172-6.1289-0.51172-6.1914h0.003906c-0.003906-0.10156-0.046875-0.19531-0.125-0.26172-0.074219-0.066406-0.17578-0.097656-0.27734-0.085937-0.19922 0.015625-0.35547 0.1875-0.34766 0.38672 0 0.42969 0.60156 10.539 2 15.309v0.003907c0.046875 0.15625 0.19141 0.26562 0.35938 0.26953h0.10938c0.19922-0.0625 0.30859-0.27344 0.25-0.46875-0.58984-2.2188-1.0078-4.4805-1.25-6.7617 1.5938 2.2773 3.6367 4.207 6 5.6719 0.51172 0.35156 1.1172 0.54297 1.7383 0.54688 0.33984 0 0.67969-0.054688 1-0.16016 5.9609-1.7578 13.262-18.418 13.531-19.129 0.074219-0.11719 0.074219-0.26953 0-0.39063-0.09375-0.10937-0.23828-0.16016-0.37891-0.12891-0.46875 0.10938-0.92188 0.19922-1.3594 0.28125 0-1 0.32812-2.8398 1.2617-3.3789 1.3672-0.82422 3.0078-6.3125 3.207-8.6133 0.058594-0.82812 0-1.3086-0.32812-1.5391-0.19141-0.15234-0.4375-0.21094-0.67188-0.16016-0.4375 0.17578-0.8125 0.48438-1.0703 0.87891 0.070312-0.46484 0.023437-0.94531-0.14063-1.3906-0.13281-0.3125-0.39453-0.55469-0.71875-0.66797-0.3125-0.097656-0.64844-0.058593-0.92969 0.10938-0.097656 0.054687-0.1875 0.11719-0.26953 0.19141 0.015625-0.23438-0.039063-0.46875-0.16016-0.67188-0.12891-0.16797-0.33984-0.25391-0.55078-0.23047-0.35156 0-0.69141 0.35156-1 0.82031-0.019531-0.18359-0.085937-0.35937-0.19141-0.50781-0.17188-0.23438-0.46094-0.35547-0.75-0.3125-1.6602 0.16016-2.7617 4.0703-3 4.8516-0.023438 0.19141 0.097656 0.37109 0.28125 0.41797 0.1875 0.046875 0.37891-0.050781 0.44922-0.22656 0.44922-1.7305 1.4688-4.2109 2.3906-4.2812 0.12891 0.70703 0.046875 1.4375-0.23047 2.0977-0.28906 0.73828-0.53125 1.4688-0.67188 2h0.003906c-0.070312 0.19531 0.03125 0.40625 0.22266 0.47656 0.19531 0.070312 0.40625-0.03125 0.47656-0.22656 0.26562-0.65234 0.49219-1.3203 0.67969-2 0.27344-0.85156 0.71484-1.6445 1.3008-2.3281-0.011719 0.55859-0.10547 1.1172-0.26953 1.6484-0.39062 0.91406-0.69531 1.8633-0.91016 2.832-0.042968 0.19141 0.070313 0.38281 0.25781 0.44141 0.19141 0.058594 0.39453-0.042969 0.46094-0.23047 0.35547-0.92969 0.66016-1.875 0.91797-2.832 0.1875-0.5 0.5-0.94141 0.91016-1.2812 0.09375-0.066406 0.21484-0.082031 0.32031-0.046875 0.12891 0.035156 0.23047 0.13281 0.26953 0.25781 0.35156 0.76953-0.26172 2.7383-0.71875 3.8008-0.082031 0.1875 0.003906 0.40625 0.19141 0.48828 0.1875 0.085937 0.40625 0 0.48828-0.1875 0.80859-1.8008 1.8008-3.1719 2.1211-3.1719 0.15234 0.8125 0.097656 1.6484-0.16016 2.4297-0.60156 2.8711-1.8984 6.0898-2.6289 6.5117-1.4414 0.82031-1.6211 3.4609-1.6406 4.1406-3 0.44141-5.3281 0.070313-6.7812-1.1094-0.98438-0.81641-1.5703-2.0156-1.6211-3.293 0.019531-0.19922-0.12891-0.37891-0.32812-0.39844-0.18359-0.023438-0.35938 0.09375-0.41016 0.26953l-2.8984 10.5c-1.4102-1.7695-5.6914-7.0898-7.1523-9.1484-1.8711-2.6992-7.6484-1.1797-7.8906-1.1211-0.10547 0.023438-0.19531 0.09375-0.24609 0.1875-0.050782 0.097656-0.058594 0.21094-0.023438 0.3125zm-2.1992 34.789v-0.41016c2.8516-0.078125 3.1211 0.42188 3.4609 1 0.22656 0.52344 0.61719 0.96094 1.1094 1.25 0.29688 0.19531 0.64453 0.30078 1 0.30078 0.19141 0 0.38281-0.039062 0.55859-0.11328 0.66016-0.38281 1.1367-1.0195 1.3203-1.7578 0.89062-0.078125 1.5-1.1406 1.7305-1.6484v-0.003906c0.51953-0.085937 1.0156-0.27734 1.4609-0.55859 0.34766 0.77734 0.92578 1.4258 1.6484 1.8711 0.25391 0.14062 0.53906 0.21484 0.83203 0.21875 0.21094 0.023437 0.42578 0.003906 0.62891-0.058594 0.24219-0.12891 0.41016-0.35938 0.46094-0.62891 0.44922-1.7891-1.7891-7.9414-2.6406-9.1094-0.85156-1.1719-6.7891-1-8-1v-0.003906c-0.20312 0.023437-0.35547 0.19531-0.35156 0.40234 0 0.10156 0.042969 0.19922 0.12109 0.26562 0.078125 0.066407 0.17969 0.097657 0.28125 0.082032 2.7188-0.14844 6.7891 0 7.3008 0.67188 1.0781 1.4883 3.1094 8.0781 2.4688 8.6211-0.26172 0.11719-0.56641 0.097657-0.8125-0.050781-0.78125-0.41016-1.7812-1.7891-2.2383-4.4609-0.015625-0.097656-0.070313-0.18359-0.15234-0.23828-0.082031-0.058593-0.17969-0.078124-0.27734-0.0625-0.097656 0.015626-0.1875 0.070313-0.24609 0.15234-0.058593 0.078125-0.082031 0.17969-0.0625 0.27734 0.14063 0.83594 0.36328 1.6523 0.66797 2.4414-0.35938 0.20703-0.73828 0.375-1.1289 0.51172v-0.23828-0.003906c0.039063-0.76563-0.26953-1.5117-0.83984-2.0273-0.57031-0.51562-1.3398-0.74609-2.1016-0.63281-0.10938-0.015625-0.22266 0.011719-0.30859 0.085938-0.082031 0.070312-0.13281 0.17969-0.13281 0.28906 0 0.11328 0.050782 0.21875 0.13281 0.28906 0.085937 0.074218 0.19922 0.10547 0.30859 0.085937 2-0.070312 2.0781 1.1211 2.1719 2 0.015625 0.17969 0.050781 0.35547 0.097656 0.53125-0.21875 0.48828-0.69922 1.2617-1.1094 1.2812v-0.003906c-0.10156-0.17969-0.17188-0.38281-0.21094-0.58984-0.23828-0.91016-0.67969-2.5898-3.1719-2.2188h0.003907c-0.20312 0.03125-0.33984 0.21875-0.30859 0.42188 0.011719 0.097656 0.0625 0.1875 0.14062 0.24609 0.078125 0.0625 0.17969 0.085938 0.27734 0.074219 1.8281-0.28125 2.0898 0.71094 2.3281 1.6719l0.003906-0.003906c0.054687 0.27734 0.15234 0.54297 0.28906 0.78906-0.10938 0.39062-0.42188 1.1992-0.92188 1.4102-0.29297 0.097656-0.61328 0.046875-0.85937-0.14062-0.37891-0.23438-0.66797-0.58203-0.82813-1-0.5-0.94141-1-1.5195-4-1.4609l1.2891-10.191v0.003906c0.011719-0.10547-0.023437-0.21094-0.089844-0.28906-0.074219-0.078125-0.17578-0.125-0.28125-0.12891l-20.328-0.51172c1.5117-1.6719 5.5-6.3203 5.9102-9.3086 0.023438-0.20312-0.12109-0.39062-0.32031-0.42187-0.097656-0.015626-0.19922 0.011718-0.27734 0.070312-0.078125 0.0625-0.13281 0.15234-0.14453 0.25-0.46094 3.3711-6.2188 9.4414-6.2812 9.5-0.10156 0.10938-0.12891 0.26562-0.074219 0.40234 0.058594 0.13672 0.1875 0.23047 0.33594 0.23828l20.75 0.51953-1.3711 10.691c-2.4688 0.17969-19.379 1.1914-26.148-3.9297-8-6.1016 4.6094-24 5.1602-24.711 2.9297-4.1016 8-3.3281 8-3.3281v-0.003906c0.097656 0.019532 0.19922-0.003906 0.28125-0.0625 0.078125-0.058594 0.13281-0.14844 0.14844-0.24609 0.023438-0.20312-0.10938-0.39062-0.30859-0.42969-0.050781 0-5.5586-0.85156-8.7695 3.6289-0.55859 0.78906-13.621 19.219-5 25.75 4.7891 3.6211 14.129 4.3008 20.469 4.3008 3.5898 0 6.2109-0.21875 6.5-0.23828v-0.003906c0.19141 0.007813 0.35938-0.13672 0.37891-0.32812zm45.16-13.77-23.59 0.28906c-0.12109 0-0.23437 0.066406-0.30078 0.16797l-6.3281 9.6016c-0.11328 0.17188-0.066406 0.40234 0.10547 0.51562 0.16797 0.11328 0.39844 0.066406 0.51172-0.10547l6.1914-9.4102 22.711-0.28125-9.5625 15.703h-35.688c-0.10938-0.019531-0.22266 0.011719-0.30859 0.082031-0.085938 0.074219-0.13281 0.17969-0.13281 0.29297 0 0.10938 0.046875 0.21484 0.13281 0.28906 0.085937 0.070312 0.19922 0.10156 0.30859 0.085937h35.898c0.13281-0.003906 0.25-0.070313 0.32031-0.18359l10-16.48v0.003907c0.066406-0.12109 0.066406-0.26172 0-0.38281-0.054688-0.10156-0.15625-0.17188-0.26953-0.1875zm-23.332-27.582c0.82812 0.078125 2.5312 1.9219 3.4102 3.0586v0.003906c0.058594 0.089844 0.15234 0.15234 0.25781 0.17188 0.10547 0.019531 0.21484-0.007812 0.29688-0.070312 0.085937-0.066407 0.14062-0.16406 0.14844-0.27344 0.007813-0.10547-0.027344-0.21094-0.10156-0.28906-0.25-0.32813-2.5195-3.2109-3.9414-3.3398-0.27734-0.03125-0.55859 0.054687-0.76953 0.23828-1.0898 1-0.10156 2.2617 0.69141 3.3008 0.21094 0.26953 0.42969 0.55078 0.60938 0.82031 0.75 1.1289 0 3.2109 0 3.2305-0.074219 0.19531 0.023437 0.41406 0.21875 0.48828h0.13281c0.15234 0 0.29297-0.09375 0.34766-0.23828 0-0.10156 0.92969-2.4688 0-3.9219-0.19141-0.28125-0.41016-0.57031-0.62891-0.85937-0.85156-1.1016-1.3203-1.8008-0.78125-2.2891 0.035156-0.019531 0.074219-0.027344 0.10938-0.03125zm15.09 0.058594 0.003906 0.003906c-0.039063 0.20312 0.09375 0.39844 0.29688 0.4375l20 4h0.070312c0.20703 0.019531 0.38672-0.12891 0.40625-0.33594 0.019532-0.20313-0.13281-0.38281-0.33594-0.40234l-20-3.9492c-0.1875-0.046875-0.38281 0.0625-0.4375 0.25zm-18.699-34.27c0.11719 0.007812 0.22266-0.046876 0.29297-0.13672l1.7812-2.25 2.457 2.2891c0.070312 0.070313 0.16406 0.10938 0.26562 0.10938 0.097656 0 0.19531-0.039062 0.26562-0.10938 0.14062-0.14844 0.14062-0.38281 0-0.53125l-2.7695-2.5898c-0.078125-0.074219-0.18359-0.10938-0.29297-0.10156-0.10156 0.011719-0.19531 0.0625-0.25781 0.14062l-2 2.5781v0.003906c-0.0625 0.074219-0.089844 0.17578-0.078126 0.27344 0.011719 0.097656 0.058594 0.18359 0.13672 0.24609 0.058594 0.046876 0.125 0.074219 0.19922 0.078126zm41.531 38.281-2.4883-2.6484c-0.14062-0.14844-0.37891-0.15625-0.52734-0.015625s-0.15625 0.375-0.015625 0.52344l2.2188 2.3789-2.8867 2.5703c-0.070312 0.070313-0.11328 0.16797-0.11328 0.26562 0 0.10156 0.042969 0.19531 0.11328 0.26562 0.070313 0.078125 0.17188 0.12109 0.27734 0.12109 0.09375 0 0.18359-0.035156 0.25-0.10156l3.1133-2.7891c0.074219-0.070312 0.11719-0.16797 0.11719-0.26953 0.027344-0.10547 0.007812-0.21484-0.058594-0.30078zm-39-31.5-0.070312-8.1289c-0.003907-0.20703-0.17188-0.37109-0.37891-0.37109-0.10156-0.003907-0.19531 0.035156-0.26562 0.10547-0.070312 0.070313-0.10938 0.16406-0.10547 0.26562l0.28906 32.379c-0.003906 0.17969 0.125 0.33594 0.30078 0.37109l2.7383 0.53906h0.070313c0.20703 0.023437 0.39062-0.125 0.41016-0.32812 0.023438-0.20703-0.125-0.39062-0.32812-0.41016l-2.4492-0.48828-0.21094-22.785c0.37891-0.48047 2.2188-2.7188 3.8086-2.8711v0.003907c0.40625-0.046876 0.8125 0.089843 1.1133 0.36719 0.69922 0.64062 1 2.4219 1.3008 4.3008 0.55078 3.3281 1.2305 7.4688 4.6797 8.1602 2.7188 0.53906 4.7109-0.85937 6.4609-2.0898s3.0898-2.1719 4.8008-1.3281c1.7109 0.83984 2.0703 3.8711 2.3281 6.7617 0.26172 2.8906 0.51953 5.5586 2.2695 6.3398 3.3711 1.5117 6.3711 4.6992 5.5898 7.8789-0.050781 0.19922 0.066407 0.40625 0.26953 0.45703h0.089844c0.17187 0 0.32422-0.12109 0.36719-0.28906 0.87891-3.5781-2.3594-7.1016-6-8.7383-1.3594-0.60938-1.5898-3.1016-1.8281-5.7305-0.28125-3.0898-0.57812-6.2891-2.75-7.3594-2.1719-1.0703-3.7812 0.14062-5.5586 1.3906-1.7812 1.25-3.4805 2.4414-5.8906 2-2.9414-0.57812-3.5391-4.2812-4.0781-7.5391-0.33984-2.1016-0.64062-3.9219-1.5391-4.7383l-0.003906-0.003907c-0.44922-0.42578-1.0664-0.62891-1.6797-0.5625-1.4883 0.11328-2.9688 1.5117-3.75 2.4414zm4.6211 21.891c0.20312-0.011718 0.36328-0.18359 0.35938-0.39062l-0.46094-12.32c-0.003906-0.097656-0.046875-0.19531-0.11719-0.26172-0.074219-0.066406-0.17188-0.10156-0.27344-0.097656-0.097656 0.003906-0.19531 0.046875-0.26172 0.11719-0.066407 0.074218-0.10156 0.17187-0.097657 0.27344l0.46094 12.32c0.003906 0.1875 0.15234 0.34375 0.33984 0.35937zm2.7773-11.191c-0.10156-0.003906-0.20313 0.03125-0.27734 0.10156-0.074219 0.070312-0.11719 0.16797-0.12109 0.26953l0.42969 9.8594c0.011718 0.20312 0.17969 0.35938 0.37891 0.35938 0.10156 0 0.19531-0.042969 0.26562-0.11719 0.066406-0.074218 0.10156-0.17187 0.097656-0.27344l-0.39062-9.8281c-0.007812-0.20703-0.17578-0.37109-0.38281-0.37109zm4.1094 2.25h0.003907c-0.21094 0-0.38281 0.17188-0.38281 0.38281v8.1797c-0.015625 0.10938 0.015625 0.22266 0.085938 0.30469 0.074218 0.085937 0.17969 0.13672 0.28906 0.13672 0.11328 0 0.21875-0.050781 0.28906-0.13672 0.074219-0.082032 0.10547-0.19531 0.085937-0.30469v-8.1797c0-0.20703-0.16406-0.375-0.36719-0.38281zm3.3398 0.69141v10h0.003906c0 0.21094 0.16797 0.37891 0.37891 0.37891 0.097656 0 0.19531-0.039063 0.26562-0.10938 0.070312-0.074219 0.10547-0.17188 0.10547-0.26953v-10c0-0.10156-0.035156-0.19531-0.10547-0.26953-0.070313-0.070312-0.16797-0.10938-0.26562-0.10938-0.10156 0-0.19922 0.039063-0.26953 0.10938-0.070313 0.070313-0.10938 0.16797-0.10938 0.26953zm4.2305 11.551v-12.473c-0.027344-0.18359-0.1875-0.31641-0.375-0.31641-0.18359 0-0.34375 0.13281-0.375 0.31641v12.473c0.03125 0.18359 0.19141 0.31641 0.375 0.31641 0.1875 0 0.34766-0.13281 0.375-0.31641zm3.8203 0.28906v-11c-0.027344-0.18359-0.1875-0.32031-0.375-0.32031-0.18359 0-0.34375 0.13672-0.375 0.32031v11c0.03125 0.18359 0.19141 0.32031 0.375 0.32031 0.1875 0 0.34766-0.13672 0.375-0.32031zm3.8203 1.1602v-3.6289c-0.027344-0.18359-0.1875-0.32031-0.375-0.32031-0.18359 0-0.34375 0.13672-0.375 0.32031v3.6289c0.03125 0.18359 0.19141 0.31641 0.375 0.31641 0.1875 0 0.34766-0.13281 0.375-0.31641z"/>
</svg>