<svg xmlns="http://www.w3.org/2000/svg" version="1.1" viewBox="-5.0 -10.0 110.0 135.0">
 <path d="m70.109 41.871c-1.8594-3.0586 1-8.2891 1.1289-8.5117 0.046875-0.089844 0.12891-0.15234 0.22656-0.18359 0.09375-0.027343 0.19922-0.015625 0.28516 0.035157 0.085938 0.046874 0.15234 0.12891 0.17578 0.22656 0.027344 0.09375 0.015625 0.19531-0.035156 0.28125 0 0.050781-2.7812 5.0781-1.1406 7.7617 0.73047 1.1914 2.2695 1.7617 4.5781 1.6914 0.13281-0.003906 0.25781 0.058594 0.33203 0.16797 0.058594 0.11719 0.058594 0.25391 0 0.37109l-2.1484 4.2891c-0.1875 0.69531-0.027344 1.4414 0.42969 2 0.64062 0.60938 2.2617 1 6.2812-0.37109l0.35938-2.8203h-0.003906c0.03125-0.20312 0.21875-0.34766 0.42188-0.32031 0.20312 0.03125 0.34766 0.21875 0.32031 0.42188l-0.37891 3c-0.023437 0.14062-0.11719 0.25781-0.25 0.30859-1.5508 0.59766-3.1836 0.93359-4.8398 1-0.88281 0.070312-1.7539-0.20312-2.4297-0.76953-0.67578-0.78125-0.90234-1.8516-0.60156-2.8398l1.9102-3.8398c-2.2617 0.10938-3.8086-0.57812-4.6211-1.8984zm3.25-7.1094c-0.082031-0.054688-0.18359-0.074219-0.28125-0.050781-0.09375 0.023437-0.17969 0.082031-0.22656 0.16797l-0.51953 0.82031h-0.003906c-0.050781 0.085937-0.066406 0.18359-0.042969 0.28125 0.023438 0.09375 0.082032 0.17969 0.16406 0.23047 0.058593 0.039062 0.12891 0.058593 0.19922 0.058593 0.13281 0 0.25391-0.066406 0.32031-0.17969l0.51172-0.80859c0.054687-0.085938 0.074219-0.1875 0.050781-0.28516-0.023438-0.10156-0.085938-0.18359-0.17188-0.23438zm2.8789 3.1484c0.14453 0 0.27734-0.082031 0.33984-0.21094l0.44141-0.91016c0.089844-0.18359 0.015625-0.40625-0.16797-0.5-0.1875-0.089843-0.41016-0.015624-0.5 0.17188l-0.44141 0.91016c-0.042968 0.085937-0.050781 0.19141-0.019531 0.28516s0.10156 0.17188 0.1875 0.21484c0.050781 0.027344 0.10547 0.039062 0.16016 0.039062zm-1.3711-1.7188h0.003906c0.14062-0.14844 0.14062-0.38281 0-0.53125-0.0625-0.078125-0.15234-0.125-0.25-0.13672-0.097656-0.011719-0.19531 0.015624-0.26953 0.078124-0.30078 0.25-1.7891 1.5117-1.6406 2.5508v-0.003906c0.066406 0.40625 0.35547 0.73437 0.75 0.85156h0.14062c0.16016 0.027344 0.32422-0.054688 0.39844-0.19922 0.039062-0.09375 0.039062-0.19531 0.003906-0.28906-0.039062-0.089844-0.11328-0.16406-0.20312-0.20312-0.26953-0.10938-0.28906-0.23047-0.30078-0.26953-0.058594-0.44922 0.78125-1.3672 1.3711-1.8477zm-1.3008 5.1016 0.003906-0.003907c0.37891 0.24609 0.82031 0.37109 1.2695 0.35938 0.28906 0.003906 0.57812-0.035157 0.85938-0.10938 0.20312-0.054687 0.32031-0.25781 0.26953-0.46094-0.023438-0.09375-0.082031-0.17578-0.16797-0.22656-0.085937-0.050781-0.18359-0.066406-0.28125-0.042968-0.50391 0.17188-1.0547 0.12109-1.5195-0.13672-0.36719-0.26562-0.62109-0.66016-0.71094-1.1016-0.039062-0.20312-0.23437-0.33594-0.4375-0.30078-0.10156 0.015625-0.1875 0.070313-0.24609 0.15234-0.054688 0.078125-0.074219 0.17969-0.054688 0.27734 0.12109 0.64453 0.48438 1.2148 1.0195 1.5898zm17.664 15.926c-2.4805-2.3945-5.1562-4.5781-8-6.5273-0.082031-0.058594-0.18359-0.078125-0.28125-0.0625-0.097657 0.019532-0.18359 0.078125-0.23828 0.16016-0.0625 0.082032-0.082032 0.18359-0.066407 0.28125 0.019531 0.10156 0.078125 0.1875 0.16406 0.23828 2.8125 1.9258 5.4648 4.0781 7.9297 6.4297 2.6719 2.7383 3.4805 16.16 3.6094 18.75l-8.1289-0.85938 1.1289-9.3086h0.003906c0.007813-0.125-0.042968-0.25-0.14062-0.33203 0 0-4.2109-3.3477-5.1211-7.707-0.042969-0.20703-0.24609-0.33594-0.44922-0.29297-0.19922 0.046875-0.32812 0.24219-0.28906 0.44141 0.87891 4.1719 4.3711 7.3203 5.1797 8l-1.1484 9.4688h-0.003906c-0.007812 0.10156 0.019532 0.20312 0.082032 0.28125 0.058593 0.082031 0.14844 0.13281 0.25 0.14062l0.76953 0.078126v0.92969c-0.83984 0.10156-2.6484 0.39844-3.1719 1.2383v0.003906c-0.17188 0.27734-0.19531 0.62109-0.070313 0.91797 0.32422 0.79297 1.0547 1.3398 1.9023 1.4336-0.37891 1.2891-1.2617 4.6289-0.48828 6.1406l-0.003906-0.003906c0.16406 0.35938 0.46875 0.63672 0.83984 0.76172 0.46875 0.18359 0.99609 0.11328 1.4023-0.17969 0.19922-0.14844 0.36328-0.33984 0.48047-0.5625 0.074218 0.25391 0.20312 0.48828 0.36719 0.69141 0.17578 0.21094 0.42969 0.33984 0.70312 0.35938h0.058594c0.23438 0 0.45703-0.09375 0.62109-0.25781 0.17188-0.18359 0.30469-0.40234 0.39062-0.64062 0.085937 0.20703 0.20312 0.39844 0.34766 0.57031 0.1875 0.20703 0.45312 0.32422 0.73047 0.32812s0.53906-0.12109 0.71094-0.33984c0.17188-0.24219 0.27734-0.52344 0.30859-0.82031 0.125 0.21094 0.29297 0.39453 0.49219 0.54297 0.25 0.18359 0.5625 0.25781 0.86719 0.20703 1.5117-0.28125 1.0703-5.8008 0.67188-9.0703-0.027344-0.20313-0.21094-0.34766-0.41406-0.32422-0.20703 0.027343-0.35156 0.21094-0.32812 0.41406 0.5 4.1484 0.46875 8-0.070313 8.2383v0.003907c-0.10156 0.023437-0.21094-0.003907-0.28906-0.082031-0.53516-0.63672-0.88281-1.4141-1-2.2383-0.070312-0.44141-0.14062-0.78906-0.17969-1-0.042969-0.19531-0.23438-0.31641-0.42969-0.28125-0.19531 0.03125-0.33203 0.21484-0.30859 0.41016 0 0.10156 0.070312 0.46875 0.17188 0.94141h-0.003907c0.21484 0.83594 0.1875 1.7188-0.078124 2.5391-0.027344 0.042969-0.074219 0.0625-0.12109 0.058594-0.074219 0-0.14453-0.03125-0.19141-0.089844-0.35938-0.6875-0.53516-1.4609-0.50781-2.2383 0.015625-0.33203 0.015625-0.66797 0-1 0-0.19922-0.16016-0.35938-0.35938-0.35938-0.19531 0.007813-0.35547 0.15625-0.38281 0.34766v1c0.039062 0.84375-0.14844 1.6836-0.53906 2.4336h-0.10938c-0.078125-0.007813-0.14844-0.046875-0.19141-0.11328-0.33203-0.66016-0.48047-1.3984-0.42969-2.1367 0.011719-0.23047 0.011719-0.46094 0-0.69141-0.003906-0.19922-0.16797-0.35938-0.36719-0.35938-0.19922 0.003906-0.36328 0.15234-0.38281 0.34766v0.64062c0.023438 0.72656-0.21875 1.4375-0.67969 2-0.20703 0.15234-0.48438 0.17969-0.71875 0.070313-0.17969-0.070313-0.32031-0.20703-0.40234-0.37891-0.64844-1.2891 0.26953-4.8008 0.67969-6h0.003907c0.035156-0.12109 0.011719-0.25-0.0625-0.35156-0.074219-0.10156-0.20312-0.15625-0.32812-0.14062-0.71484 0.058594-1.3828-0.34375-1.6719-1-0.0625-0.10156-0.039063-0.23047 0.050781-0.30859 0.30078-0.48828 1.8984-0.82812 2.9297-0.91016 0.19922-0.015625 0.35156-0.17969 0.35156-0.37891v-1.2227l7.4297 0.80078c0.09375 0 0.1875-0.039062 0.25781-0.097656 0.078125-0.078125 0.12109-0.18359 0.10938-0.29297-0.027344-0.66797-0.70703-16.457-3.8477-19.68zm-25.449-2.8086c-0.09375-0.035156-0.19922-0.027344-0.28906 0.015625-0.089844 0.046875-0.15625 0.12891-0.18359 0.22266l-3.2383 9.5781v0.003907c-1.5977 0.86719-3.3008 1.5234-5.0703 1.9414-1.8008 0.39062-7.9414-4-12.109-7.4492v-0.003906c0.95312-0.097656 1.8516-0.51172 2.5508-1.168 2-1.8008 2.4688-5.1406 2.6016-6.7383l6.5117 6.7812-0.003907-0.003906c0.074219 0.074218 0.17578 0.11719 0.27734 0.12109 0.10547-0.003907 0.20312-0.050782 0.27344-0.13281l10.059-11.578 4.5195 0.80859c0.10547 0.035156 0.21875 0.023437 0.31641-0.03125 0.09375-0.058594 0.16016-0.15234 0.17969-0.26172s-0.011719-0.22266-0.082031-0.30859c-0.070312-0.082031-0.17188-0.13281-0.28516-0.13672l-4.7305-0.83984c-0.12891-0.027344-0.26172 0.019531-0.34766 0.12109l-10 11.391-6.8281-7.1094-0.003906-0.003906c-0.10156-0.10938-0.26172-0.14453-0.40234-0.089844-0.14062 0.054688-0.23438 0.19141-0.23438 0.33984 0 0 0 4.9297-2.3906 7.0781v0.003907c-0.8125 0.74609-1.9023 1.1094-3 1-0.16016-0.011719-0.3125 0.082031-0.37109 0.23047-0.0625 0.14844-0.023438 0.32031 0.10156 0.42969 1 0.87891 9.9492 8.3008 13.18 8.3008 0.11328 0.007813 0.22656 0.007813 0.33984 0 1.5977-0.35938 3.1445-0.91406 4.6094-1.6523l-0.51953 1.5391-7.5508 17.191c-0.042968 0.089844-0.046875 0.19141-0.011718 0.28516 0.035156 0.09375 0.10937 0.16797 0.20312 0.20312 0.046876 0.011719 0.097657 0.011719 0.14844 0 0.14844 0.003907 0.28125-0.082031 0.33984-0.21875l7.5703-17.191 4.0898-12.188c0.066406-0.19531-0.03125-0.40625-0.21875-0.48047zm17.309 11.211c-0.097656-0.023438-0.19922-0.003906-0.28125 0.050781-0.082032 0.054687-0.14062 0.14062-0.16016 0.23828l-1.7266 8.0898c-2.1484-0.37891-13.52-2.5-16.43-6.3008h-0.003907c-0.12109-0.16406-0.35547-0.19531-0.51953-0.070313-0.16016 0.125-0.19141 0.35938-0.070312 0.51953 2.4883 3.2617 10.371 5.2695 14.57 6.1484l-0.71875 10.461v0.003907c-0.007812 0.097656 0.023438 0.19531 0.089844 0.27344 0.066406 0.074219 0.16016 0.12109 0.26172 0.125 0.19531 0 0.35938-0.15234 0.36719-0.35156l0.71094-10.359c1.0898 0.21094 1.8203 0.32812 1.9414 0.33984h0.058594c0.17969 0.003907 0.33203-0.125 0.35937-0.30078l1.8086-8.4102h0.003906c0.027344-0.09375 0.019532-0.19922-0.03125-0.28516-0.050781-0.085938-0.13281-0.14844-0.23047-0.17188zm-15.891 8c-0.16406-0.12109-0.39844-0.085938-0.51953 0.078125-0.12109 0.16797-0.085938 0.39844 0.082031 0.51953l1.6016 1.1797-0.46875 9.3008h-0.003906c-0.007813 0.10156 0.027344 0.19922 0.097656 0.27344 0.066407 0.070313 0.16016 0.11328 0.26172 0.11719 0.19922 0.007812 0.37109-0.14844 0.37891-0.35156l0.48047-9.5c-0.007813-0.089843-0.046875-0.17188-0.10938-0.23828zm-0.058594 4.7109v-0.003906c-0.1875-0.085937-0.41016-0.003906-0.5 0.18359l-2.7812 5.7891c-0.042969 0.089844-0.050781 0.19141-0.019531 0.28516s0.10156 0.17187 0.19141 0.21484c0.050781 0.011719 0.10547 0.011719 0.16016 0 0.14062 0 0.27344-0.082031 0.33984-0.21094l2.7891-5.7617c0.0625-0.17578-0.015624-0.37109-0.17969-0.45703zm-20.879-15.332c0.097656 0.18359 0.035156 0.41016-0.14062 0.51953-2.2227 1.2695-9.1211 1.6523-16.84 1.6523-6.2188 0-12.93-0.25-18-0.5-3.5977-0.17969-6.4023-3.1719-6.3516-6.7734l0.37891-36.539c0.054687-3.4258 2.6719-6.2656 6.082-6.5977v-0.91016c0-1.1055 0.89453-2 2-2s2 0.89453 2 2v0.66016c2.3789-0.12891 4.9297-0.25 7.5391-0.32812v-0.33203c0-1.1055 0.89453-2 2-2 1.1055 0 2 0.89453 2 2v0.21875c2.5391-0.050781 5.0781-0.058593 7.5312 0v-0.21094c0-1.1055 0.89453-2 2-2 1.1055 0 2 0.89453 2 2v0.32812c2.25 0.10938 4.3594 0.26953 6.2617 0.51172v-0.83984h-0.003906c0-1.1055 0.89844-2 2-2 1.1055 0 2 0.89453 2 2v1.5391c2.3281 0.57031 4 1.3398 4.6016 2.3711 3.7695 6.1992 0.55859 29.891 0.42188 30.898l-0.003907 0.003906c-0.027343 0.19922-0.21484 0.34375-0.41797 0.31641-0.097656-0.011719-0.1875-0.0625-0.25-0.14062-0.058593-0.078125-0.085937-0.17969-0.070312-0.27734 0-0.25 3.3086-24.441-0.32031-30.41-0.48828-0.80859-1.8398-1.4688-4-2v0.83984c0 0.097656-0.039063 0.19141-0.10938 0.26172-0.066406 0.070312-0.16406 0.10938-0.26172 0.10938-0.20312 0-0.375-0.16406-0.37891-0.37109v-1c-3.1289-0.57422-6.3008-0.90625-9.4805-1v2c-0.03125 0.18359-0.1875 0.32031-0.375 0.32031-0.18359 0-0.34375-0.13672-0.375-0.32031v-2.0898l-2.4805-0.078125v0.16797c0.019531 0.10938-0.011719 0.22266-0.085938 0.30859-0.070312 0.082031-0.17578 0.13281-0.28906 0.13281-0.10938 0-0.21484-0.050781-0.28906-0.13281-0.070313-0.085938-0.10156-0.19922-0.085938-0.30859v-0.19141h-7.5312l0.003906 2.1914c-0.007812 0.20703-0.17578 0.37109-0.38281 0.37109-0.20312 0-0.36719-0.16797-0.36719-0.37109v-2.1602l-2.4805 0.058594v0.10156c0.015624 0.10938-0.015626 0.22266-0.085938 0.30859-0.074219 0.082031-0.17969 0.13281-0.28906 0.13281-0.11328 0-0.21875-0.050781-0.28906-0.13281-0.074219-0.085938-0.10547-0.19922-0.085937-0.30859v-0.070312c-2.3906 0.070312-4.9102 0.19141-7.5391 0.32812v1.7422c0 0.097656-0.039063 0.19141-0.10938 0.26172-0.070312 0.070312-0.16406 0.10938-0.26172 0.10938-0.20703 0-0.375-0.16406-0.37891-0.37109v-1.6992l-3 0.17969c-3.1133 0.21094-5.543 2.7734-5.5938 5.8906v2.1797c3.3711-0.17188 35.379-1.6719 44.77 1.1016l0.003906-0.003906c0.19531 0.0625 0.30859 0.27344 0.25 0.47266-0.046874 0.16016-0.19531 0.26953-0.36328 0.26953h-0.10156c-9.2656-2.7422-41.867-1.2188-44.637-1.0898l-0.32031 33.609c-0.039063 3.1953 2.457 5.8477 5.6484 6 19 0.94141 31.602 0.55078 34.422-1.0508 0.085938-0.050781 0.1875-0.0625 0.28516-0.035156 0.09375 0.023437 0.17578 0.089843 0.22656 0.17578zm-0.86328-48.211c0.87891 0.12891 1.7109 0.26953 2.4688 0.42969l0.003906-1.3672c0.03125-0.34766-0.085938-0.69141-0.32031-0.94922-0.23438-0.25781-0.56641-0.40234-0.91406-0.40234-0.35156 0-0.68359 0.14453-0.91797 0.40234-0.23438 0.25781-0.35156 0.60156-0.32031 0.94922zm-10.238-0.71875 2.4805 0.078126v-0.30078 0.003906c0-0.6875-0.55469-1.2422-1.2422-1.2422-0.68359 0-1.2383 0.55469-1.2383 1.2422zm-11.512 0.078126c0.82031 0 1.6484-0.050782 2.4805-0.058594v-0.23828c0-0.6875-0.55469-1.2422-1.2383-1.2422s-1.2422 0.55469-1.2422 1.2422zm-11.512-0.30078v0.85156l2.4688-0.14844v-0.69922h0.003906c0.03125-0.34766-0.085937-0.69141-0.32031-0.94922-0.23437-0.25781-0.56641-0.40234-0.91406-0.40234s-0.67969 0.14453-0.91406 0.40234c-0.23438 0.25781-0.35156 0.60156-0.32031 0.94922zm21 29.102h0.003906c-0.19531 0.074219-0.29297 0.28906-0.21875 0.48047 0.070313 0.19531 0.28516 0.29297 0.47656 0.21875 0 0 4.2188-1.5312 6.9219 0 2.6992 1.5312 5.2812 3.1992 5.3086 3.2109 0.058594 0.039063 0.12891 0.0625 0.19922 0.0625 0.125 0 0.24219-0.0625 0.3125-0.16016 0.054687-0.082031 0.078125-0.18359 0.058594-0.28125-0.019531-0.097657-0.074219-0.1875-0.16016-0.24219 0 0-2.5078-1.6602-5.3672-3.2383-2.8633-1.5781-7.3711-0.12109-7.5508 0zm12.691 8.4297c0.16406 0 0.30859-0.10547 0.36328-0.25781 0.03125-0.09375 0.023438-0.19922-0.023437-0.28516-0.042969-0.089844-0.125-0.15625-0.21875-0.1875l-12.891-4.2188-3.3906-1.1094h0.003906c-0.82422-0.25781-1.5742-0.71094-2.1836-1.3203l0.85156-0.14844c0.85938-0.15234 1.7422-0.082031 2.5703 0.19922l14.391 4.8711c0.19531 0.0625 0.40625-0.039063 0.47266-0.23828 0.066406-0.19531-0.039063-0.40625-0.23438-0.47266l-14.438-4.9492c-0.94531-0.33203-1.957-0.42188-2.9414-0.26172l-1.5508 0.26953c-0.13672 0.019531-0.25 0.11719-0.28906 0.25-0.046874 0.13281-0.015624 0.27734 0.078126 0.37891l0.55078 0.57031c0.67969 0.69922 1.5156 1.2227 2.4414 1.5312l3.1719 1c0.35938 3.3398 4.4414 5.6211 8.1992 6.3398 0.94531 0.097656 1.8164 0.57031 2.418 1.3086 0.25781 0.38672 0.36328 0.85156 0.30078 1.3125-0.023438 0.09375-0.007813 0.19531 0.046875 0.27734 0.050781 0.085938 0.13672 0.14453 0.23438 0.16016h0.078125c0.17578 0.003906 0.33203-0.11719 0.37109-0.28906 0.11328-0.64844-0.027344-1.3203-0.39063-1.8711-0.70703-0.92188-1.7617-1.5195-2.9219-1.6484-3.4492-0.66016-7-2.6797-7.5508-5.3398l12.352 4zm-34.449-14c-0.20312 0-0.375-0.16406-0.37891-0.36719v-8.1719c0.003906-0.20703 0.17578-0.37109 0.37891-0.37109h8.2109c0.20703 0 0.375 0.16406 0.37891 0.37109v8.2188c-0.003906 0.20703-0.17188 0.37109-0.37891 0.37109zm0.37109-0.75h7.4492v-7.4102h-7.4688zm5.3711-5.8203-2.0703 3-1-1.1094c-0.0625-0.09375-0.16016-0.15625-0.26953-0.16797-0.10938-0.015625-0.22266 0.015625-0.30469 0.089844-0.082031 0.074218-0.12891 0.18359-0.125 0.29297 0 0.10938 0.050782 0.21484 0.13672 0.28516l1.2812 1.4609c0.066407 0.085938 0.17188 0.13281 0.28125 0.12891 0.11719 0 0.22656-0.058593 0.28906-0.16016l2.3516-3.3281c0.11328-0.17578 0.070313-0.41016-0.10156-0.53125-0.16406-0.097656-0.37109-0.058593-0.48828 0.089844zm3 16.559v0.003906c0 0.20703-0.17188 0.37891-0.38281 0.37891h-8.25c-0.20703 0-0.37891-0.17188-0.37891-0.37891v-8.1602c0-0.21094 0.17188-0.38281 0.37891-0.38281h8.2109c0.21094 0 0.37891 0.17188 0.37891 0.38281zm-0.75-7.8398-7.5117 0.003906v7.4688h7.4688zm-8.2617 19.414v-8.2227c0.007813-0.20312 0.17578-0.36719 0.37891-0.36719h8.2109c0.20703 0 0.375 0.16406 0.37891 0.36719v8.2227c-0.003906 0.20312-0.17188 0.36719-0.37891 0.36719h-8.2109c-0.20312 0-0.37109-0.16406-0.37891-0.36719zm0.75-0.37891h7.4688v-7.4609h-7.4688zm3.0508-13.562c0.070313 0.082031 0.17188 0.12891 0.28125 0.12891 0.11719 0 0.22656-0.046875 0.30859-0.12891l2.3398-3.3398c0.11719-0.16797 0.078125-0.40234-0.089844-0.51953-0.16797-0.12109-0.40234-0.078125-0.51953 0.089844l-2.0703 3-1-1.1094c-0.14062-0.125-0.35547-0.125-0.49609 0-0.14453 0.12109-0.17578 0.32812-0.074218 0.48828zm31.621-13.281c0-0.20703-0.17188-0.37891-0.38281-0.37891h-22.727c-0.1875 0.03125-0.32031 0.1875-0.32031 0.375s0.13281 0.34375 0.32031 0.375h22.727c0.20703 0 0.375-0.16406 0.38281-0.37109zm-8.0508 2.1797h-15.059c-0.1875 0.03125-0.32031 0.19141-0.32031 0.375 0 0.1875 0.13281 0.34766 0.32031 0.375h15.059c0.18359-0.027344 0.31641-0.1875 0.31641-0.375 0-0.18359-0.13281-0.34375-0.31641-0.375zm-15.059 12.262h1.3203-0.003907c0.11328 0.019532 0.22266-0.011718 0.30859-0.085937 0.085937-0.070313 0.13281-0.17578 0.13281-0.28906 0-0.11328-0.046876-0.21875-0.13281-0.28906-0.085937-0.074219-0.19531-0.10547-0.30859-0.085938h-1.3164c-0.1875 0.03125-0.32031 0.1875-0.32031 0.375s0.13281 0.34375 0.32031 0.375zm0-2.5586h1.3203-0.003907c0.10156 0 0.19922-0.035156 0.26953-0.10547 0.070313-0.070313 0.11328-0.16797 0.11328-0.26562 0-0.21094-0.17188-0.37891-0.38281-0.37891h-1.3164c-0.10156 0-0.19922 0.039063-0.26562 0.10938-0.070312 0.074218-0.10938 0.16797-0.10547 0.26953-0.003906 0.097656 0.035157 0.19531 0.10547 0.26562 0.070312 0.070312 0.16406 0.10547 0.26562 0.10547zm9.8281 12h-9.8281c-0.10156-0.003906-0.19531 0.035157-0.26562 0.10547-0.070312 0.066407-0.10938 0.16406-0.10547 0.26172-0.003906 0.10156 0.035157 0.19922 0.10547 0.26953 0.066406 0.070313 0.16406 0.11328 0.26562 0.11328h9.8281c0.10156 0 0.19531-0.042968 0.26562-0.11328 0.070313-0.070312 0.10547-0.16797 0.10547-0.26953-0.023438-0.1875-0.18359-0.32422-0.37109-0.32031zm0-2.5586-9.8281-0.003907c-0.10156 0-0.19531 0.035157-0.26562 0.10547-0.070312 0.070313-0.10938 0.16797-0.10547 0.26562-0.003906 0.10156 0.035157 0.19531 0.10547 0.26953 0.066406 0.070312 0.16406 0.10937 0.26562 0.10937h9.8281c0.10156 0 0.19531-0.039062 0.26562-0.10937 0.070313-0.074219 0.10547-0.16797 0.10547-0.26953-0.023438-0.1875-0.18359-0.32812-0.37109-0.32031zm42-19.309v-0.003906c1.4023 0.60547 2.9688 0.72656 4.4492 0.33984-0.097657 1.0469-0.30078 2.082-0.60938 3.0898-0.19922 0.46094-0.17578 0.98828 0.070312 1.4297 0.32031 0.41016 0.89062 0.37109 1.6016 0.32812v0.003906c0.96875-0.13281 1.9531 0.007813 2.8477 0.39844 0.23828 0.12109 0.51172 0.30078 0.51172 0.51172 0 0.66016-1.8906 1.7305-3.1289 2.2383h-0.003907c-0.14062 0.058594-0.23828 0.19531-0.23828 0.35156v2.6914-0.003906c0.003906 0.18359 0.13672 0.33984 0.32031 0.37109 0.39844 0.066406 0.80469 0.097656 1.2109 0.097656 0.88281 0.066406 1.7539-0.23828 2.4102-0.83984 0.53516-0.60156 0.78906-1.4062 0.69922-2.207 0.71875-0.39844 2.8711-1.7188 3.5703-3.6016 0.69922-1.8789-1.9414-4.2617-2.9492-5 1.1992-1.3398 1.1016-3.9492 0.17188-5.7617-0.71875-1.4102-1.8281-2.0508-3-1.6992-2.6289 0.78906-3.2383 0.67188-4.6992-1-1-1.1094-3.2891-1.3008-4.8281-0.39844-0.78125 0.44922-2.4609 1.8594-1.3203 5.1719l-0.007813-0.003907c0.44531 1.543 1.5156 2.8281 2.9531 3.543zm-62.059-16.734c-0.87891 0-1.6719 0.52734-2.0078 1.3398-0.33594 0.8125-0.14844 1.7422 0.47266 2.3633s1.5547 0.80859 2.3633 0.47266c0.8125-0.33594 1.3398-1.1289 1.3398-2.0039 0-0.57812-0.22656-1.1289-0.63672-1.5352-0.40625-0.40625-0.95703-0.63672-1.5312-0.63672zm11.508 0c-0.875 0.003906-1.6641 0.53516-1.9961 1.3477-0.33203 0.80859-0.14453 1.7422 0.47656 2.3594 0.62109 0.62109 1.5547 0.80469 2.3633 0.46875 0.80859-0.33984 1.3359-1.1289 1.3359-2.0039 0-0.57812-0.23047-1.1328-0.63672-1.5391-0.41016-0.40625-0.96484-0.63672-1.543-0.63281zm11.52 0c-0.875 0-1.668 0.52734-2.0039 1.3398-0.33594 0.8125-0.14844 1.7422 0.47266 2.3633 0.61719 0.62109 1.5508 0.80859 2.3633 0.47266 0.80859-0.33594 1.3398-1.1289 1.3398-2.0039 0-0.57812-0.23047-1.1289-0.63672-1.5352s-0.95703-0.63672-1.5352-0.63672zm10.23 0c-0.875 0-1.668 0.52734-2.0039 1.3398-0.33594 0.8125-0.14844 1.7422 0.46875 2.3633 0.62109 0.62109 1.5547 0.80859 2.3672 0.47266 0.80859-0.33594 1.3398-1.1289 1.3398-2.0039 0-0.57812-0.23047-1.1289-0.63672-1.5352s-0.95703-0.63672-1.5352-0.63672z"/>
</svg>